<?xml version="1.0" encoding="utf-8"?>
<!-- Generator: Adobe Illustrator 27.5.0, SVG Export Plug-In . SVG Version: 6.00 Build 0)  -->
<svg version="1.1" xmlns="http://www.w3.org/2000/svg" xmlns:xlink="http://www.w3.org/1999/xlink" x="0px" y="0px"
	 viewBox="0 0 750 500" style="enable-background:new 0 0 750 500;" xml:space="preserve">
<g id="BACKGROUND">
	<rect style="fill:#FFFFFF;" width="750" height="500"/>
</g>
<g id="OBJECTS">
	<g>
		<defs>
			<rect id="SVGID_1_" width="750" height="500"/>
		</defs>
		<clipPath id="SVGID_00000021102367142690329100000003313452076556574651_">
			<use xlink:href="#SVGID_1_"  style="overflow:visible;"/>
		</clipPath>
		<g style="clip-path:url(#SVGID_00000021102367142690329100000003313452076556574651_);">
			<path style="fill:#FFB875;" d="M39.564,231.257c3.114-12.654,12.645-25.856,26.038-28.662
				c13.683-2.868,28.909,4.899,35.954,16.619c6.103,10.152,9.369,26.654,8.563,38.41c-0.741,10.809-7.224,21.764-17.535,25.091
				c0.078,11.105-0.5,22.215-1.728,33.253c-0.418,3.754-0.96,7.639-3.003,10.817c-6.665,10.368-19.717,14.66-31.491,11.832
				c-13.378-3.214-19.034-13.229-19.02-26.41c0.015-14.474,0.249-28.947,0.704-43.413C38.421,256.846,36.734,242.758,39.564,231.257
				z"/>
			<g>
				<path style="fill:#FFB875;" d="M237.24,333.278c0.071-0.071,0.144-0.14,0.217-0.209c4.034-3.728,8.255,0.102,9.321-7.123
					c0.353-2.391,0.299-4.899,1.293-7.102c0.579-1.283,1.92-0.917,2.619,0.154c0.455,0.697,0.585,1.55,0.707,2.374
					c0.573,3.853,1.237,7.742,2.8,11.31c2.198,5.017,6.003,9.074,8.634,13.841c2.663,4.824,3.016,10.45,0.83,15.568
					c-0.888,2.08-2.293,4.036-4.311,5.058c-1.611,0.816-3.467,0.972-5.272,1.029c-6.496,0.208-18.359-2.977-19.211-10.775
					C234.162,350.932,231.832,338.65,237.24,333.278z"/>
				<path style="fill:#FFB875;" d="M181.136,295.58c9.074,5.208,17.906,10.767,26.483,16.669c4.882,3.359-0.169,10.762-5.093,7.374
					c-8.577-5.902-17.409-11.461-26.483-16.669C170.854,299.976,175.94,292.598,181.136,295.58z"/>
				<path style="fill:#FFB875;" d="M181.385,326.362c8.475,4.865,16.725,10.057,24.737,15.57c4.56,3.138-0.158,10.053-4.757,6.888
					c-8.012-5.513-16.262-10.706-24.737-15.57C171.78,330.468,176.531,323.576,181.385,326.362z"/>
				<path style="fill:#FFB875;" d="M180.984,311.997c8.476,4.865,16.725,10.057,24.737,15.57c4.56,3.138-0.158,10.052-4.757,6.888
					c-8.012-5.513-16.262-10.706-24.737-15.57C171.38,316.103,176.13,309.211,180.984,311.997z"/>
				<path style="fill:#FFB875;" d="M235.376,321.743c2.673,1.718,2.37,5.467,0.36,7.306c-7.848-6.818-16.654-12.183-25.686-17.232
					c7.623,3.308,15.375,6.327,23.248,9.053c-15.975-9.337-32.36-17.987-49.14-25.825c-2.263-1.057-3.761-3.175-2.956-5.722
					c0.667-2.111,3.544-3.944,5.788-2.896c17.666,8.252,34.941,17.263,51.754,27.108C243.295,316.2,239.805,322.543,235.376,321.743
					z"/>
				<path style="fill:#FFB875;" d="M277.389,375.536c-6.201-12.498-13.34-26.738-27.499-30.927
					c-3.886-1.15-9.655-2.953-13.587-1.484c-2.292,0.857-4.208,2.459-5.993,4.114c-3.013,2.793-5.835,5.877-7.667,9.535
					c-4.298,8.585,0.666,13.292,5.203,19.782c27.053,38.7,17.362,95.423,22.033,139.71c0.527,5,1.318,10.276,4.514,14.158
					c4.181,5.08,11.36,6.448,17.936,6.634c10.728,0.303,21.516-1.666,31.445-5.739c3.287-1.348,6.622-3.04,8.67-5.944
					c1.815-2.573,2.404-5.795,2.825-8.916c6.403-47.484-15.928-96.964-36.693-138.539
					C278.183,377.136,277.788,376.34,277.389,375.536z"/>
				<g>
					<path style="fill:#2D2D2D;" d="M228.059,382.05l-46.869-7.911c-2.656-0.448-4.448-2.934-4.003-5.553l18.306-107.847
						c0.445-2.618,2.958-4.378,5.613-3.93l46.869,7.911c2.656,0.448,4.448,2.934,4.003,5.553L233.672,378.12
						C233.229,380.728,230.704,382.496,228.059,382.05z"/>
					<path style="fill:#F2F5F8;" d="M228.575,380.287l-47.289-7.982c-1.56-0.263-2.612-1.723-2.351-3.261l18.418-108.504
						c0.261-1.538,1.737-2.571,3.297-2.308l47.289,7.982c1.56,0.263,2.612,1.723,2.351,3.261l-18.418,108.504
						C231.611,379.511,230.128,380.549,228.575,380.287z"/>
					<g>
						<path style="fill:#363636;" d="M203.383,276.504c-0.282,1.664-1.879,2.781-3.566,2.497c-1.687-0.285-2.826-1.864-2.544-3.528
							c0.282-1.664,1.879-2.781,3.566-2.497C202.527,273.261,203.665,274.84,203.383,276.504z"/>
					</g>
					<path style="fill:#2D2D2D;" d="M210.677,258.773l-0.146,2.298c-0.096,1.503,1.144,2.875,2.858,3.165l20.536,3.466
						c1.714,0.289,3.338-0.6,3.743-2.05l0.621-2.218L210.677,258.773z"/>
					
						<rect x="180.619" y="294.079" transform="matrix(0.1664 -0.9861 0.9861 0.1664 -137.7879 478.8505)" style="fill:#E84B4B;" width="67.421" height="53.686"/>
					
						<text transform="matrix(0.9998 0.1688 -0.1673 0.9859 241.6196 283.4422)" style="font-family:'OpenSans'; font-size:4.5413px;">...</text>
					<path style="fill:none;stroke:#2D2D2D;stroke-width:0.5;stroke-linecap:round;stroke-miterlimit:10;" d="M238.182,280.465
						c-10.813-2.293-21.69-4.283-32.614-5.967"/>
					<path style="fill:none;stroke:#2D2D2D;stroke-width:0.5;stroke-linecap:round;stroke-miterlimit:10;" d="M185.557,357.203
						c8.737,0.102,16.927,4.299,25.607,5.298c2.41,0.277,4.891,0.315,7.162,1.169c0.671,0.253,1.369,0.581,2.074,0.451"/>
					<path style="fill:none;stroke:#2D2D2D;stroke-width:0.5;stroke-linecap:round;stroke-miterlimit:10;" d="M185.773,360.454
						c3.326,0.835,6.652,1.67,9.978,2.504"/>
					<path style="fill:none;stroke:#2D2D2D;stroke-width:0.5;stroke-linecap:round;stroke-miterlimit:10;" d="M229.185,282.205
						c-2.59-0.771-5.187-1.544-7.85-1.999c-2.432-0.415-4.906-0.563-7.325-1.047c-2.199-0.44-4.335-1.155-6.436-1.94"/>
					<path style="fill:#FFFFFF;" d="M203.865,303.671c0.29-0.164,0.824-0.222,1.765-0.245c4.848-0.12,11.487,4.624,15.3,7.21
						c4.669,3.167,8.959,6.887,12.954,10.863c0.31,0.309,0.645,0.707,0.537,1.132c-0.072,0.286-0.328,0.484-0.581,0.634
						c-1.343,0.794-2.984,0.839-4.544,0.862c-3.722,0.055-7.444,0.111-11.166,0.166c-0.515,0.008-1.064,0.026-1.486,0.32
						c-0.383,0.266-0.593,0.711-0.787,1.137c-1.926,4.23-3.562,9.119-6.035,12.977c-3.063-3.248-3.812-12.388-4.661-16.854
						c-0.551-2.899-0.579-5.964-0.831-8.898c-0.185-2.141-0.51-4.311-0.586-6.458C203.682,304.755,203.285,303.999,203.865,303.671z
						"/>
				</g>
				<path style="fill:#FFB875;" d="M256.365,338.475c-2.407-4.298-3.728-8.943-4.339-13.822c-0.645-5.152-0.998-9.957-0.116-15.124
					c0.471-2.76-1.781-4.465-4.454-3.461c-1.351,0.508-2.398,1.598-3.197,2.785c-2.598,3.86-2.888,8.651-2.828,13.154
					c0.032,2.385-0.111,4.633,0.141,7.058c0.27,2.588,0.597,5.171,0.738,7.77c0.14,2.588,0.286,5.208,1.078,7.681
					c0.78,2.435,2.185,4.675,4.048,6.451c1.473,1.404,3.41,2.566,5.443,2.359c1.791-0.182,3.344-1.435,4.207-2.991
					c1.781-3.209,1.794-7.707-0.088-10.782C256.779,339.197,256.568,338.837,256.365,338.475z"/>
				<path style="fill:none;stroke:#2D2D2D;stroke-width:0.5;stroke-linecap:round;stroke-miterlimit:10;" d="M242.275,331.827
					c-4.431,10.285-2.497,22.978,4.808,31.564"/>
				<path style="fill:none;stroke:#2D2D2D;stroke-width:0.5;stroke-linecap:round;stroke-miterlimit:10;" d="M236.383,360.806
					c1.568-0.736,3.432,0.068,4.855,1.06"/>
				<path style="fill:#F9CB95;" d="M206.347,324.931c-26.007,7.644-49.887,21.699-69.179,40.744
					c-4.783,4.722,2.591,12.095,7.373,7.373c18.029-17.799,40.27-30.918,64.577-38.063
					C215.544,333.098,212.809,323.032,206.347,324.931z"/>
				<path style="fill:#F9CB95;" d="M192.558,345.322c-26.007,7.644-49.887,21.698-69.179,40.744
					c-4.783,4.722,2.591,12.095,7.373,7.373c18.029-17.799,40.27-30.918,64.577-38.063
					C201.754,353.488,199.02,343.422,192.558,345.322z"/>
				<path style="fill:#F9CB95;" d="M193.895,355.629c-26.007,7.644-49.887,21.699-69.179,40.744
					c-4.783,4.722,2.591,12.095,7.373,7.373c18.029-17.799,40.27-30.918,64.577-38.063
					C203.092,363.795,200.357,353.729,193.895,355.629z"/>
				<path style="fill:none;stroke:#2D2D2D;stroke-width:0.5;stroke-linecap:round;stroke-miterlimit:10;" d="M203.468,328.062
					c1.059-0.745,2.217-1.491,3.512-1.518c1.116-0.023,2.229,0.54,2.871,1.453c0.642,0.913,0.795,2.151,0.395,3.193
					c-0.652,1.7-2.506,2.591-4.251,3.108"/>
				<path style="fill:none;stroke:#2D2D2D;stroke-width:0.5;stroke-linecap:round;stroke-miterlimit:10;" d="M251.897,308.916
					c-1.068-0.298-2.171-0.468-3.279-0.507c-0.43-0.015-0.89-0.002-1.245,0.242c-0.203,0.14-0.353,0.343-0.492,0.548
					c-0.688,1.017-1.191,2.158-1.478,3.351c-0.044,0.182-0.082,0.378-0.018,0.554c0.077,0.209,0.28,0.343,0.479,0.444
					c1.166,0.595,2.534,0.597,3.843,0.585"/>
				<path style="fill:none;stroke:#2D2D2D;stroke-width:0.5;stroke-linecap:round;stroke-miterlimit:10;" d="M203.386,327.871
					c0.294,0.978,0.588,1.956,0.882,2.933"/>
			</g>
			<path style="fill:#0571E6;" d="M-94.823,544.56c-5.59,1.071-11.417-1.849-14.501-5.819s-4.007-8.783-4.747-13.451
				c-9.226-58.172-0.157-118.882,31.239-171.593c5.508-9.247,11.821-18.383,20.94-25.454c17.763-13.774,43.519-17.841,67.896-19.367
				c33.9-2.123,68.145-0.499,101.521,4.814c16.973,2.702,33.965,6.435,48.868,13.623c41.936,20.228,51.513,59.951,57.337,96.49
				c7.02,44.048,5.564,88.674,4.095,133.08"/>
			<text transform="matrix(1 0 0 1 539.9996 960.0005)" style="font-family:'MyriadPro-Regular'; font-size:12px;">Realistic quarantine stripes</text>
			<path style="fill:#363636;" d="M39.237,220.158c3.729-17.305,14.397-21.005,33.349-23.56c9.372-1.264,18.593-3.648,27.403-7.084
				c3.481-1.358,7.465-2.871,10.79-1.165c3.873,1.987,4.585,7.571,2.64,11.465c-1.945,3.894-5.725,6.479-9.348,8.892
				c4.416,0.585,8.74-3.915,12.888-2.291c2.59,1.014,3.809,4.234,3.24,6.958c-0.569,2.723-2.532,4.959-4.734,6.659
				c-10.175,7.859-24.538,6.043-37.205,3.843c0.759,7.658,1.513,15.45,0.005,22.995c-1.508,7.546-5.641,14.947-12.447,18.538
				c-5.505,2.904-12.004,3.01-18.228,3.051c-5.611,0.037-10.129-1.47-10.72-7.742c-1.073-11.403,0.153-22.883,1.378-34.271
				C38.494,224.17,38.822,222.08,39.237,220.158z"/>
			<path style="fill:#FFB875;" d="M90.596,240.205c-3.235-5.092-9.033-8.604-15.066-8.588c-6.033,0.016-12.019,3.817-14.141,9.465
				c-2.122,5.647,0.127,12.748,5.362,15.748c3.891,2.229,8.701,2.107,13.105,1.263c2.696-0.516,5.825-1.776,6.28-4.483"/>
			<path style="fill:#0571E6;" d="M181.523,346.299c45.499,50,81.236,108.849,104.619,172.278c1.033,2.801,2.054,5.679,2.075,8.664
				c0.069,9.73-10.056,16.278-19.423,18.913c-9.367,2.635-19.87,3.671-26.893,10.406c-33.603-22.245-63.277-51.31-82.456-86.753
				c-19.179-35.443-27.283-77.555-18.444-116.874c1.893-8.418,6.993-21.099,16.991-22.347
				C167.394,329.412,175.992,340.222,181.523,346.299z"/>
			<path style="fill:none;stroke:#2D2D2D;stroke-linecap:round;stroke-miterlimit:10;" d="M124.89,409.421
				c21.85,57.427,61.859,107.79,112.855,142.063"/>
			<g>
				<defs>
					<path id="SVGID_00000116922001627736341060000013291321578238209934_" d="M39.564,231.257
						c3.833-15.578,17.215-30.606,33.183-29.066c13.12,1.266,22.721,12.878,28.967,24.485c5.134,9.541,9.147,20.139,8.406,30.948
						c-0.741,10.809-7.224,21.764-17.535,25.091c0.078,11.105-0.5,22.215-1.728,33.253c-0.418,3.754-0.96,7.639-3.002,10.817
						c-13.188,20.515-47.712,15.119-51.578-8.707c-2.169-13.369,2.163-27.264,2.131-40.72
						C38.37,261.999,35.838,246.397,39.564,231.257z"/>
				</defs>
				<clipPath id="SVGID_00000130645637435233869560000000608065407244485540_">
					<use xlink:href="#SVGID_00000116922001627736341060000013291321578238209934_"  style="overflow:visible;"/>
				</clipPath>
				<path style="clip-path:url(#SVGID_00000130645637435233869560000000608065407244485540_);fill:#FFFFFF;" d="M110.119,257.624
					c-4.294,2.59-8.836,0.693-13.794-0.061c2.308,6.557,9.964,10.714,16.72,9.081"/>
			</g>
			<path style="fill:none;stroke:#2D2D2D;stroke-linecap:round;stroke-miterlimit:10;" d="M79.711,238.575
				c-2.627-2.261-6.845-2.397-9.612-0.311c-3.008,2.268-4.112,5.529-2.696,9.02"/>
			<path style="fill:none;stroke:#2D2D2D;stroke-linecap:round;stroke-miterlimit:10;" d="M82.098,246.93"/>
			<path style="fill:none;stroke:#2D2D2D;stroke-linecap:round;stroke-miterlimit:10;" d="M71.07,238.23
				c2.569,1.501,4.088,4.623,3.682,7.571"/>
			<text transform="matrix(1 0 0 1 539.9996 960.0005)" style="font-family:'MyriadPro-Regular'; font-size:12px;">Realistic quarantine stripes</text>
			<path style="fill:#FFFFFF;" d="M107.299,239.34c-1.277-1.116-3.091-1.587-4.75-1.231c-1.658,0.356-3.12,1.529-3.826,3.071
				c1.358,1.063,2.912,1.561,4.632,1.439C105.076,242.497,106.763,240.979,107.299,239.34z"/>
			<path d="M102.014,242.653c0.458,0.057,0.993,0.056,1.278,0.05c0.706-0.015,1.409-0.437,2.009-0.768
				c1.093-0.603,1.194-1.861,0.873-2.985c-0.04-0.139-0.088-0.278-0.174-0.393c-0.157-0.211-0.414-0.317-0.66-0.408
				c-0.582-0.214-1.184-0.397-1.804-0.421c-0.62-0.024-1.264,0.123-1.748,0.51c-0.465,0.371-0.747,0.934-0.882,1.513
				c-0.135,0.579-0.134,1.181-0.119,1.775c0.005,0.202,0.013,0.409,0.091,0.595C101.051,242.535,101.622,242.604,102.014,242.653z"
				/>
			<path style="fill:none;stroke:#2D2D2D;stroke-linecap:round;stroke-miterlimit:10;" d="M108.331,232.501
				c-0.745-0.536-1.713-0.666-2.629-0.614c-2.839,0.161-5.349,1.853-7.533,3.674"/>
		</g>
		<g style="clip-path:url(#SVGID_00000021102367142690329100000003313452076556574651_);">
			<g>
				<defs>
					
						<rect id="SVGID_00000072964610095159631600000012633332198152516489_" x="338.517" y="79.831" width="245.724" height="159.154"/>
				</defs>
				<clipPath id="SVGID_00000144296800317726721010000017763958717336125341_">
					<use xlink:href="#SVGID_00000072964610095159631600000012633332198152516489_"  style="overflow:visible;"/>
				</clipPath>
				
					<rect x="318.844" y="30.121" style="clip-path:url(#SVGID_00000144296800317726721010000017763958717336125341_);fill:#E84B4B;" width="291.437" height="247.859"/>
				<g style="clip-path:url(#SVGID_00000144296800317726721010000017763958717336125341_);">
					<path style="fill:#363636;" d="M453.075,191.506c-2.419-1.958-3.762-6.184-7.113-5.19c-3.55,1.054-4.691,5.202-9.122,4.492
						c-2.407-0.386-4.536-1.964-6.906-2.569c-3.382-0.862-6.518-0.415-9.487,0.384c-6.413,1.725-16.702,4.888-22.686-0.077
						c-2.459-2.041-3.377-5.491-3.126-8.677c0.251-3.186,1.504-6.195,2.741-9.142c3.332-7.935,6.664-15.87,9.996-23.806
						c3.206-7.636,6.465-15.364,11.481-21.954c12.014-15.781,36.763-23.559,52.59-8.633c5.522,5.207,7.182,12.356,10.38,19.044
						c4.137,8.651,8.265,17.306,12.397,25.958c5.758,12.057,11.667,25.255,8.828,38.311c-1.471,6.764-6.949,13.804-13.802,12.834
						c-6.921-0.98-10.304-9.593-14.642-14.217C467.551,190.751,460.68,197.663,453.075,191.506z"/>
					<path style="fill:#38965F;" d="M535.139,232.138c-10.781-16.675-73.077-33.454-73.077-33.454
						c0.071,0.791-1.354,0.393-1.886,0.259c-7.958-1.992-17.012-0.259-25.083-0.259c0,0-59.163,18.359-73.077,33.454
						c-14.658,15.902-14.373,41.174-14.373,41.174h198.322C545.964,273.312,546.335,249.455,535.139,232.138z"/>
					<path style="fill:#363636;" d="M490.977,178.287c2.528,11.121,5.342,22.197,7.897,33.278c1.617,7.01,3.559,15.158,1.475,22.309
						c-1.909,6.549-8.563,12.373-14.725,12.688c-8.491,0.434-13.744-3.309-17.142-11.806c-2.677-6.694-3.38-14.178-3.679-21.425
						c-0.587-14.203-0.526-28.491-2.067-42.598c-1.526-13.961-3.794-28.364-0.573-42.249c0.682-2.941,1.679-5.94,3.698-7.978
						c2.019-2.037,5.307-2.778,7.478-0.946c0.84,0.709,1.433,1.714,1.987,2.713c7.092,12.807,9.777,27.253,12.614,41.748
						C488.872,168.788,489.899,173.542,490.977,178.287z"/>
					<path style="fill:#363636;" d="M416.255,134.691c-0.851,2.295-1.547,4.672-2.183,7.052
						c-5.334,19.942-6.937,41.031-13.267,60.607c-2.328,7.199-5.3,14.217-6.445,21.763c-1.334,8.787,0.26,17.441,6.531,23.205
						c4.725,4.342,11.411,6.707,17.085,4.15c6.169-2.78,9.393-10.298,11.404-17.379c5.274-18.564,6.1-38.283,6.886-57.74
						c0.337-8.343,0.674-16.685,1.011-25.028c0.291-7.196,0.576-14.476-0.681-21.541c-0.425-2.391-1.051-4.802-2.35-6.762
						c-4.809-7.254-11.872,0.05-15.069,5.427C418.008,130.409,417.062,132.513,416.255,134.691z"/>
					<path style="fill:#FBF9FC;" d="M425.055,160.079c0,1.556-0.681,34.165-1.219,59.702c-0.354,16.779,9.328,30.675,21.473,30.851
						c0.221,0.003,0.442,0.006,0.663,0.009c12.065,0.167,21.908-13.308,21.908-29.984v-60.578H425.055z"/>
					<g>
						<defs>
							<path id="SVGID_00000074422154358033128570000013737028577018517157_" d="M425.055,160.079
								c0,1.556-0.681,34.165-1.219,59.702c-0.354,16.779,9.328,30.675,21.473,30.851c0.221,0.003,0.442,0.006,0.663,0.009
								c12.065,0.167,21.908-13.308,21.908-29.984v-60.578H425.055z"/>
						</defs>
						<clipPath id="SVGID_00000058571031713528295070000011139460518035900860_">
							<use xlink:href="#SVGID_00000074422154358033128570000013737028577018517157_"  style="overflow:visible;"/>
						</clipPath>
						<path style="clip-path:url(#SVGID_00000058571031713528295070000011139460518035900860_);fill:#363636;" d="M447.694,185.541
							c0.598,2.229,1.562,4.019,2.735,5.535c2.173,1.919,4.352,3.827,6.544,5.706c0.708,0.493,1.411,0.978,2.092,1.473
							c1.616,1.175,3.244,2.32,4.866,3.479c2.727,1.764,5.445,3.551,8.172,5.316c1.843,1.193,3.709,2.331,5.618,3.308
							c-1.089-13.468-2.722-26.854-4.901-40.073c-0.115-0.695-0.262-1.456-0.692-1.859c-0.467-0.437-1.093-0.293-1.647-0.131
							C463.946,170.209,443.722,170.716,447.694,185.541z"/>
					</g>
					<path style="fill:#FFFFFF;stroke:#363636;stroke-miterlimit:10;" d="M447.478,194.176L447.478,194.176
						c-15.593,0-28.234-14.114-28.234-31.524v-9.24c0-17.41,12.641-31.524,28.234-31.524l0,0c15.594,0,28.235,14.114,28.235,31.524
						v9.24C475.713,180.062,463.072,194.176,447.478,194.176z"/>
					<path style="fill:none;stroke:#363636;stroke-miterlimit:10;" d="M427.4,150.401c1.749-1.512,4.021-2.249,6.224-2.019"/>
					<path style="fill:none;stroke:#363636;stroke-miterlimit:10;" d="M469.92,149.208c-1.864-1.47-4.236-2.115-6.497-1.764"/>
					<path style="fill:none;stroke:#FFFFFF;stroke-miterlimit:10;" d="M445.749,235.998"/>
					<path style="fill:none;stroke:#FFFFFF;stroke-miterlimit:10;" d="M445.749,278.459"/>
					<path style="fill:none;stroke:#363636;stroke-miterlimit:10;" d="M456.973,179.264"/>
					<path style="fill:#E84B4B;" d="M440.445,173.735c1.507,3.116,4.647,5.155,7.818,5.078c3.171-0.077,6.228-2.268,7.611-5.455
						L440.445,173.735z"/>
					<path style="fill:#363636;" d="M439.697,133.92c1.792,1.96,3.958,3.616,6.179,5.092c2.181,1.449,4.471,2.775,6.962,3.581
						c3.154,1.02,6.513,1.171,9.825,1.315c5.916,0.256,11.832,0.511,17.748,0.767c-2.666-7.576-6.403-14.775-11.066-21.317
						c-4.647-6.52-15.304-14.489-23.863-12.787c-9.304,1.851-12.699,11.711-8.435,19.662
						C437.77,131.578,438.672,132.799,439.697,133.92z"/>
					<path style="fill:#363636;" d="M432.5,126.258c-1.644-1.876-4.901-1.589-9.637,3.118c-1.611,1.601-2.917,3.48-4.127,5.401
						c-2.3,3.649-4.289,7.494-5.94,11.479c-0.572,1.382-0.811,3.463,0.613,3.919c0.628,0.201,1.301-0.065,1.905-0.331
						c5.049-2.219,10.079-4.802,13.884-8.795C433.895,136.121,434.864,128.955,432.5,126.258z"/>
					<path style="fill:none;stroke:#363636;stroke-miterlimit:10;" d="M444.655,164.778c-0.61-2.398,1.443-5.116,3.662-4.849
						c2.22,0.267,3.707,3.411,2.654,5.608"/>
					<g>
						<defs>
							<path id="SVGID_00000060028884488263744930000016416275612328760203_" d="M535.139,232.138
								c-10.781-16.675-73.077-33.454-73.077-33.454c0.071,0.791-1.354,0.393-1.886,0.259c-7.958-1.992-17.012-0.259-25.083-0.259
								c0,0-59.163,18.359-73.077,33.454c-14.658,15.902-14.373,41.174-14.373,41.174h198.322
								C545.964,273.312,546.335,249.455,535.139,232.138z"/>
						</defs>
						<clipPath id="SVGID_00000028308488514774239750000018383441061603983510_">
							<use xlink:href="#SVGID_00000060028884488263744930000016416275612328760203_"  style="overflow:visible;"/>
						</clipPath>
						<path style="clip-path:url(#SVGID_00000028308488514774239750000018383441061603983510_);fill:#FFBF52;" d="M482.785,263.656
							c2.407-2.081,4.042-5.06,6.145-7.518c2.103-2.458,5.075-4.491,8.052-3.781c0.5,0.119,1.009,0.332,1.338,0.769
							c0.316,0.42,0.421,0.988,0.469,1.534c0.401,4.573-2.444,8.765-5.747,11.507c-3.303,2.742-7.18,4.564-10.348,7.497
							c-3.161,2.927-15.732,21.946-17.629,8.682C463.245,269.627,476.332,269.236,482.785,263.656z"/>
						<path style="clip-path:url(#SVGID_00000028308488514774239750000018383441061603983510_);fill:#FFBF52;" d="M514.151,219.11
							c-1.232,3.279-2.93,6.327-4.054,9.654c-1.416,4.19-1.88,8.696-2.247,13.155c-0.188,2.281-0.342,4.653,0.38,6.797
							c0.723,2.144,2.585,3.987,4.626,3.757c1.628-0.183,2.957-1.618,3.703-3.245c0.746-1.626,1.033-3.457,1.453-5.223
							c2.749-11.543,11.37-20.828,12.754-32.671c0.478-4.096-0.08-8.605-2.584-11.646c-2.688-3.263-8.873-4.234-10.616,0.458
							c-0.98,2.637-0.621,6.597-1.052,9.425C516.018,212.832,515.299,216.053,514.151,219.11z"/>
						<path style="clip-path:url(#SVGID_00000028308488514774239750000018383441061603983510_);fill:#FFBF52;" d="M356.004,212.829
							c0.486,2.298,1.867,4.203,2.956,6.227c3.005,5.585,3.844,12.248,4.584,18.711c0.219,1.909,0.451,3.877,1.316,5.542
							c1.195,2.3,3.409,3.674,5.58,4.765c2.95,1.482,6.699,2.539,9.185,0.228c2.546-2.366,2.211-6.786,1.428-10.38
							c-1.762-8.089-4.65-15.871-8.528-22.982c-2.139-3.922-4.866-7.877-8.81-9.178c-1.935-0.638-4.216-0.49-5.723,1.008
							c-1.396,1.387-1.852,3.665-1.626,5.735c0.227,2.07,1.039,3.996,1.84,5.88"/>
						<path style="clip-path:url(#SVGID_00000028308488514774239750000018383441061603983510_);fill:#FFBF52;" d="M369.678,277.788
							c0.164-4.103,3.698-6.97,7.093-8.55c3.395-1.58,7.215-2.683,9.584-5.825c0.927-1.23,1.565-2.7,2.448-3.971
							c1.764-2.54,4.522-4.187,7.394-4.415c1.265-0.1,2.696,0.153,3.462,1.282c0.528,0.78,0.626,1.81,0.704,2.783
							c0.239,2.96,0.406,6.222-1.185,8.605c-1.253,1.877-3.327,2.779-5.265,3.671c-3.945,1.815-7.969,4.143-10.242,8.175
							c-1.068,1.895-1.69,4.073-2.784,5.951c-1.094,1.877-2.888,3.507-4.889,3.337C372.274,288.517,369.533,281.415,369.678,277.788
							z"/>
						<path style="clip-path:url(#SVGID_00000028308488514774239750000018383441061603983510_);fill:#FFBF52;" d="M435.976,257.749
							c-2.596-2.339-6.123-4.4-9.133-2.791c-1.689,0.903-2.836,2.947-2.826,5.038c0.013,2.746,1.807,5.065,3.707,6.809
							c1.899,1.745,4.064,3.266,5.345,5.611c1.846,3.38,1.458,7.711,2.666,11.433c1.079,3.328,3.494,6.084,6.451,7.361
							c1.901,0.821,4.105,1.024,5.947,0.048C458.361,285.841,440.638,261.949,435.976,257.749z"/>
					</g>
					<path style="fill:none;stroke:#FFFFFF;stroke-miterlimit:10;" d="M425.597,124.174c-3.285-3.082-5.723-7.057-6.98-11.383
						c-0.506-1.741-0.821-3.607-0.35-5.357c0.471-1.75,1.898-3.343,3.702-3.526c1.803-0.183,3.699,1.493,3.347,3.271
						c-0.418,2.109-3.265,2.723-5.312,2.068c-4.309-1.38-6.905-6.654-5.369-10.91c0.535-1.483,1.638-2.904,3.185-3.207
						c1.547-0.303,3.36,1.061,3.032,2.603c-0.396,1.859-2.978,2.079-4.822,1.615c-2.072-0.522-4.065-1.356-5.891-2.465
						c-0.922-0.561-1.557-2.305-0.478-2.351"/>
					<path style="fill:none;stroke:#FFFFFF;stroke-miterlimit:10;" d="M465.897,122.973c2.54-1.665,5.1-3.538,6.507-6.229
						c1.408-2.691,1.293-6.412-1.037-8.36c-0.93-0.778-2.357-1.182-3.344-0.477c-1.66,1.188-0.357,3.967,1.488,4.841
						c3.319,1.572,7.767-0.2,9.175-3.593c1.408-3.392-0.406-7.734-3.775-9.198c-1.971-0.856-5.056-0.053-4.957,2.093
						c0.086,1.849,2.477,2.646,4.304,2.351c4.905-0.793,8.364-6.499,6.799-11.215"/>
					<path style="fill:#38965F;" d="M478.75,88.173c-1.592,1.215-2.029,3.637-1.12,5.422c0.204,0.401,0.471,0.777,0.823,1.057
						c0.571,0.453,1.329,0.619,2.057,0.591c1.53-0.06,3.009-0.992,3.673-2.371C485.874,89.36,482.013,85.682,478.75,88.173z"/>
					<path style="fill:#38965F;" d="M407.032,89.32c-1.512,0.548-2.394,2.201-2.518,3.804c-0.112,1.449,0.312,2.965,1.294,4.037
						c0.982,1.072,2.544,1.632,3.952,1.271c1.245-0.32,2.238-1.29,2.894-2.395c0.756-1.273,1.138-2.804,0.863-4.258
						c-0.276-1.455-1.267-2.8-2.654-3.318c-1.188-0.444-2.565-0.249-3.659,0.393c-1.093,0.642-1.911,1.697-2.396,2.868"/>
					<path style="fill:none;stroke:#38965F;stroke-width:3;stroke-miterlimit:10;" d="M473.391,129.338
						c-13.565-13.557-36.378-16.399-51.073-2.561"/>
					<path style="fill:none;stroke:#363636;stroke-miterlimit:10;" d="M459.382,154.526c1.001-1.453,2.767-2.345,4.531-2.289
						c1.764,0.056,3.47,1.058,4.377,2.571"/>
					<path style="fill:none;stroke:#363636;stroke-miterlimit:10;" d="M436.941,155.393c-1.08-2.001-3.705-2.826-5.912-2.278
						c-2.206,0.548-3.994,2.215-5.225,4.127"/>
				</g>
				<g style="clip-path:url(#SVGID_00000144296800317726721010000017763958717336125341_);">
					<path style="fill:#FBF9FC;" d="M550.642,156.38c2.992-5.329,4.697-11.774,7.495-17.152c0.26-0.5,0.911-2.465,1.616-2.354
						c1.116,0.176,0.408,2.743,0.279,3.386c-0.617,3.075-1.395,6.105-1.967,9.193c-0.169,0.909-1.786,7.431,0.077,7.114
						c0.252-0.043,0.458-0.24,0.637-0.442c0.942-1.063,1.521-2.452,2.043-3.829c1.815-4.786,2.986-9.729,5.215-14.372
						c0.268-0.559,0.666-1.193,1.233-1.151c0.45,0.033,0.786,0.523,0.857,1.02c0.07,0.497-0.061,1-0.191,1.482
						c-1.038,3.848-2.241,7.627-3.319,11.422c-0.478,1.685-2.189,5.518-0.212,6.622c2.794,0.83,5.843-9.902,6.59-11.82
						c0.519-1.335,1.051-2.692,1.903-3.793c0.208-0.269,0.445-0.529,0.744-0.649c0.299-0.121,0.675-0.067,0.875,0.21
						c0.157,0.219,0.175,0.52,0.174,0.801c-0.011,4.169-2.666,7.346-3.746,11.121c-0.175,0.612-2.531,6.478-0.841,6.037
						c0.919-0.24,1.684-2.426,2.156-3.235c1.741-2.979,3.393-7.431,6.803-8.341c0.738,1.279,0.11,2.958-0.542,4.294
						c-3.082,6.313-6.587,12.368-10.475,18.1c-3.235,4.768-7.435,9.114-9.195,14.878c-1.171,3.835-1.555,7.911-1.772,11.956
						c-1.075,20.033-1.097,40.209-2.966,60.253c-0.538,5.768-1.26,11.704-3.901,16.698c-4.711,8.912-13.684,9.096-21.838,8.795
						c-4.584-0.169-10.097-4.248-10.701-9.665c-0.348-3.123,0.488-6.243,1.314-9.253c5.962-21.719,10.707-44.067,17.298-65.521
						c1.49-4.85,3.139-9.696,3.701-14.785c1.044-9.453-0.555-19.552-1.039-29.025c-0.055-1.077,0.622-1.826,1.625-1.34
						c1.595,0.772,2.335,2.818,2.717,4.711c0.382,1.894,0.608,3.94,1.722,5.431C547.387,161.353,549.17,159.002,550.642,156.38z"/>
				</g>
				
					<path style="clip-path:url(#SVGID_00000144296800317726721010000017763958717336125341_);fill:#FFFFFF;stroke:#363636;stroke-miterlimit:10;" d="
					M545.919,164.966c0.868,0.133,1.414,1.094,1.776,1.985c0.826,2.033,1.334,4.226,1.495,6.451"/>
				
					<path style="clip-path:url(#SVGID_00000144296800317726721010000017763958717336125341_);fill:#FFFFFF;stroke:#363636;stroke-miterlimit:10;" d="
					M561.28,169.562c-3.392,2.385-6.327,5.574-8.554,9.295"/>
			</g>
			<path style="fill:none;stroke:#393039;stroke-width:0.75;stroke-miterlimit:10;" d="M345.646,250.972
				c27.648-3.914,55.717-3.202,83.632-2.483c38.29,0.987,67.889-1.552,106.179-0.564"/>
			<path style="fill:none;stroke:#393039;stroke-width:0.75;stroke-miterlimit:10;" d="M345.778,256.969
				c14.872,0.038,29.745-0.489,44.576-1.581"/>
			<path style="fill:none;stroke:#393039;stroke-width:0.75;stroke-miterlimit:10;" d="M347.005,268.174
				c18.731-0.369,37.462-0.738,56.192-1.107c0.433-0.009,0.969,0.047,1.131,0.448c0.163,0.401-0.678,0.71-0.639,0.279"/>
		</g>
		<g style="clip-path:url(#SVGID_00000021102367142690329100000003313452076556574651_);">
			<g>
				<defs>
					
						<rect id="SVGID_00000167369202595522558680000012532804657001457061_" x="446.512" y="277.606" width="225.86" height="177.686"/>
				</defs>
				<clipPath id="SVGID_00000070841564221688429870000011673190425349255334_">
					<use xlink:href="#SVGID_00000167369202595522558680000012532804657001457061_"  style="overflow:visible;"/>
				</clipPath>
				<path style="opacity:0.21;clip-path:url(#SVGID_00000070841564221688429870000011673190425349255334_);fill:#857966;" d="
					M554.8,412.972c1.309,0.294,2.664,0.304,4.006,0.307c3.182,0.007,6.658-0.12,9.073-2.192c0.551-0.473,1.06-1.194,0.81-1.875
					c-1.143-3.119-10.53-5.542-13.591-4.956c-1.761,0.337-6.057,2.115-6.055,4.326C549.045,410.799,553.06,412.581,554.8,412.972z"
					/>
				<path style="opacity:0.21;clip-path:url(#SVGID_00000070841564221688429870000011673190425349255334_);fill:#857966;" d="
					M531.77,401.479c3.237-0.031,6.753-0.467,9.06-2.736c0.168-0.165,0.333-0.348,0.398-0.575c0.118-0.417-0.137-0.851-0.444-1.157
					c-1.134-1.132-2.905-1.254-4.507-1.255c-2.724-0.003-5.45,0.38-8.166,0.337c-1.696-0.027-3.414-0.668-4.906,0.533
					C518.906,400.089,529.577,401.5,531.77,401.479z"/>
				<path style="opacity:0.21;clip-path:url(#SVGID_00000070841564221688429870000011673190425349255334_);fill:#857966;" d="
					M588.554,379.561c7.241,1.762,14.824,1.767,22.215,0.817c4.972-0.639,10.032-1.763,14.174-4.588
					c0.991-0.676,1.983-1.544,2.208-2.723c0.195-1.023-0.241-2.074-0.858-2.914c-1.721-2.344-4.669-3.389-7.468-4.176
					c-11.446-3.218-23.352-4.241-35.181-4.878c-4.004-0.216-11.625-2.09-14.439,1.762c-2.879,3.941,1.602,7.569,4.466,9.759
					C578.054,375.972,583.208,378.261,588.554,379.561z"/>
				
					<rect x="446.512" y="277.606" style="clip-path:url(#SVGID_00000070841564221688429870000011673190425349255334_);fill:#38965F;" width="225.86" height="177.686"/>
				<polygon style="clip-path:url(#SVGID_00000070841564221688429870000011673190425349255334_);fill:#E84B4B;" points="
					730.316,410.504 548.987,489.032 399.803,345.606 586.046,270.843 				"/>
				<g style="clip-path:url(#SVGID_00000070841564221688429870000011673190425349255334_);">
					<defs>
						<polygon id="SVGID_00000085961743266061885500000004563305699602780072_" points="730.316,410.504 548.987,489.032 
							399.803,345.606 586.046,270.843 						"/>
					</defs>
					<clipPath id="SVGID_00000093160622061608406640000016516340371965363368_">
						<use xlink:href="#SVGID_00000085961743266061885500000004563305699602780072_"  style="overflow:visible;"/>
					</clipPath>
					<g style="opacity:0.38;clip-path:url(#SVGID_00000093160622061608406640000016516340371965363368_);">
						<path style="fill:none;stroke:#6B2962;stroke-miterlimit:10;" d="M518.08,476.375c8.655-2.592,16.411-7.464,24.793-10.818
							c11.595-4.641,24.159-6.296,36.245-9.495c52.841-13.984,95.36-56.992,149.482-64.877"/>
						<path style="fill:none;stroke:#6B2962;stroke-miterlimit:10;" d="M502.179,454.603c15.514-12.014,34.841-17.905,53.383-24.541
							c35.024-12.535,68.772-28.537,100.572-47.687c16.214-9.764,32.796-20.651,51.722-22.274c0.752-0.065,1.706-0.287,1.812-1.024
							c0.106-0.737-1.536-0.498-0.978,0.004"/>
						<path style="fill:none;stroke:#6B2962;stroke-miterlimit:10;" d="M676.484,345.411c-14.625-1.599-28.104,7.119-40.411,15.074
							c-16.699,10.794-33.946,20.917-52.398,28.441c-37.138,15.146-79.363,19.948-111.545,43.687"/>
						<path style="fill:none;stroke:#6B2962;stroke-miterlimit:10;" d="M643.766,313.065c-25.419,15.778-52.93,28.273-81.61,37.065
							c-18.749,5.748-37.999,9.925-56.442,16.569c-26.63,9.594-51.345,24.328-72.337,43.122"/>
						<path style="fill:none;stroke:#6B2962;stroke-miterlimit:10;" d="M624.403,285.202c-26.32,11.768-53.26,22.187-80.676,31.2
							c-24.71,8.124-49.845,15.121-73.895,24.985c-24.05,9.864-47.219,22.807-65.394,41.207c-0.929,0.941-1.776,2.663-0.639,3.346"
							/>
						<path style="fill:none;stroke:#6B2962;stroke-miterlimit:10;" d="M732.713,419.535c-18.136-5.538-34.063-16.52-48.568-28.6
							c-23.622-19.674-44.23-42.57-66.201-64.025c-21.971-21.454-45.747-41.766-73.686-54.827"/>
						<path style="fill:none;stroke:#6B2962;stroke-miterlimit:10;" d="M689.511,438.607c-4.559-7.088-9.986-13.632-16.125-19.445
							c-10.023-9.49-21.81-16.931-33.104-24.913c-14.61-10.326-28.535-21.677-40.833-34.606
							c-14.692-15.445-26.971-33.04-42.177-47.994c-15.205-14.954-34.313-27.49-55.721-29.146"/>
						<path style="fill:none;stroke:#6B2962;stroke-miterlimit:10;" d="M469.611,291.76
							c81.179,45.727,146.926,113.557,209.415,182.132c0.88,0.966,1.761,1.933,2.557,2.967"/>
						<path style="fill:none;stroke:#6B2962;stroke-miterlimit:10;" d="M622.776,475.186c-11.43-19.293-29.919-33.281-46.958-48.009
							c-40.075-34.639-74.821-76.224-120.975-102.493c-6.966-3.965-14.601-7.654-22.631-7.192"/>
						<path style="fill:none;stroke:#6B2962;stroke-miterlimit:10;" d="M419.707,324.921c16.413,10.749,28.229,26.884,40.988,41.689
							c20.929,24.285,45.101,45.618,69.189,66.866c16.193,14.284,32.387,28.569,48.58,42.853
							c8.246,7.273,16.492,14.547,24.877,21.664c1.355,1.15,3.367,2.328,4.76,1.222"/>
						<path style="fill:none;stroke:#6B2962;stroke-miterlimit:10;" d="M524.006,479.719c15.079-7.04,30.224-14.082,46.134-19.033
							c8.829-2.748,17.854-4.839,26.716-7.481c50.083-14.927,93.713-46.987,144.195-60.543"/>
						<path style="fill:none;stroke:#6B2962;stroke-miterlimit:10;" d="M699.665,364.915
							c-41.625,15.464-77.529,43.353-118.946,59.35c-20.951,8.092-43.457,13.223-62.046,25.727
							c-11.936,8.029-22.232,19.067-35.98,23.445"/>
						<path style="fill:none;stroke:#6B2962;stroke-miterlimit:10;" d="M665.526,333.377c-28.43,16.561-57.018,33.199-87.8,44.98
							c-23.584,9.025-48.307,15.139-71.313,25.511c-18,8.116-34.807,18.8-49.734,31.618"/>
						<path style="fill:none;stroke:#6B2962;stroke-miterlimit:10;" d="M641.143,305.39c-25.782,20.345-58.209,30.353-90.03,39.047
							c-31.821,8.694-64.478,16.751-92.412,34.114c-15.626,9.713-29.366,22.106-44.663,32.316"/>
						<path style="fill:none;stroke:#6B2962;stroke-miterlimit:10;" d="M404.396,368.853
							c34.895-23.892,73.353-42.714,113.751-55.671c36.653-11.756,75.17-18.829,109.466-36.176"/>
					</g>
				</g>
				<path style="opacity:0.21;clip-path:url(#SVGID_00000070841564221688429870000011673190425349255334_);fill:#857966;" d="
					M554.8,412.972c1.309,0.294,2.664,0.304,4.006,0.307c3.182,0.007,6.658-0.12,9.073-2.192c0.551-0.473,1.06-1.194,0.81-1.875
					c-1.143-3.119-10.53-5.542-13.591-4.956c-1.761,0.337-6.057,2.115-6.055,4.326C549.045,410.799,553.06,412.581,554.8,412.972z"
					/>
				<path style="opacity:0.21;clip-path:url(#SVGID_00000070841564221688429870000011673190425349255334_);fill:#857966;" d="
					M463.974,350.305c-15.786,16.044-3.815,34.683,14.295,40.807c13.208,4.467,27.466,6.685,41.211,4.261
					c16.182-2.854,42.42-16.99,35.921-36.705c-2.352-7.134-8.164-12.82-14.911-16.282c-6.748-3.462-14.386-4.896-21.967-5.505
					c-9.056-0.727-18.203-0.331-27.16,1.174C481.312,339.746,471.075,343.088,463.974,350.305z"/>
				<path style="clip-path:url(#SVGID_00000070841564221688429870000011673190425349255334_);fill:#FCC058;" d="M463.436,346.449
					c-15.786,16.044-3.815,34.683,14.295,40.807c13.208,4.467,27.466,6.685,41.211,4.261c16.182-2.854,42.42-16.99,35.921-36.705
					c-2.352-7.134-8.164-12.82-14.911-16.282c-6.748-3.462-14.386-4.896-21.967-5.504c-9.056-0.727-18.203-0.331-27.16,1.174
					C480.774,335.89,470.537,339.232,463.436,346.449z"/>
				<path style="clip-path:url(#SVGID_00000070841564221688429870000011673190425349255334_);fill:#FFBF52;" d="M555.613,394.715
					c1.337-0.477,2.755-0.676,4.17-0.626c2.778,0.099,5.543,1.159,7.653,2.963c0.865,0.74,1.639,1.608,2.122,2.632
					c3.78,8.019-7.647,11.7-13.52,10.643C546.696,408.645,546.72,397.887,555.613,394.715z"/>
				<path style="clip-path:url(#SVGID_00000070841564221688429870000011673190425349255334_);fill:#FF9175;" d="M555.135,383.769
					c0.573-0.988,1.429-1.792,2.362-2.463c1.272-0.916,2.76-1.622,4.333-1.672c2.992-0.094,5.646,2.304,6.57,5.112
					c0.266,0.81,0.418,1.681,0.234,2.513c-0.701,3.177-6.646,6.247-9.711,5.222C555.385,391.297,553.158,387.177,555.135,383.769z"
					/>
				<path style="clip-path:url(#SVGID_00000070841564221688429870000011673190425349255334_);fill:#D99E3B;" d="M481.08,349.998
					c2.316-5.534,4.584-13.33,11.769-13.333c7.535-0.004,15.183,0.994,22.536-0.629c1.397-0.308,2.803-0.712,4.231-0.612
					c1.793,0.127,2.625,0.961,3.372,2.381c0.758,1.441,1.718,2.72,2.669,4.079c2.09,2.985,3.992,6.098,5.693,9.314
					c1.363,2.578,2.32,4.192,0.979,6.937c-1.134,2.321-3.196,4.878-5.537,6.076c-2.974,1.521-6.848,2.2-10.117,2.781
					c-6.715,1.193-13.346,1.046-20.103,0.13c-3.84-0.521-7.937,0.04-11.63-1.33c-2.878-1.067-6.737-4.082-6.623-7.388
					c0.034-0.974,0.336-1.917,0.65-2.84C479.61,353.685,480.314,351.829,481.08,349.998z"/>
				<path style="clip-path:url(#SVGID_00000070841564221688429870000011673190425349255334_);fill:#363636;" d="M517.106,362.444
					c-0.176,0.023-0.352,0.043-0.528,0.062c-7.151,0.755-13.889,2.091-21.164,1.427c-3.599-0.329-7.169-1.003-10.615-2.084
					c-1.49-0.468-3.195-0.901-4.401-1.938c-0.639-0.549-2.263-2.535-1.705-3.501c-2.006,3.473-1.71,6.674,1.937,8.888
					c1.505,0.914,3.224,1.419,4.936,1.848c10.339,2.589,21.232,2.699,31.759,1.004c3.101-0.499,6.215-1.166,9.025-2.553
					c2.146-1.059,4.127-2.574,5.492-4.539c0.641-0.923,1.255-1.933,1.529-3.016c0.103-0.406-0.152-3.323-0.145-3.329
					C528.8,358.607,523.024,361.68,517.106,362.444z"/>
				<path style="clip-path:url(#SVGID_00000070841564221688429870000011673190425349255334_);fill:#FCC058;" d="M493.463,343.887
					c5.445,1.074,11.025,1.355,16.562,1.081c4.394-0.217,9.34-0.726,11.11-5.499c0.207-0.557,0.347-1.184,0.133-1.738
					c-0.393-1.016-1.712-1.262-2.8-1.212c-2.404,0.11-4.718,0.9-7.078,1.372c-6.392,1.279-12.994,0.21-19.512,0.311
					c-1.703,0.026-3.645,1.115-2.793,3.027C489.767,342.761,491.943,343.587,493.463,343.887z"/>
				<path style="opacity:0.21;clip-path:url(#SVGID_00000070841564221688429870000011673190425349255334_);fill:#857966;" d="
					M588.554,379.561c7.241,1.762,14.824,1.767,22.215,0.817c4.972-0.639,10.032-1.763,14.174-4.588
					c0.991-0.676,1.983-1.544,2.208-2.723c0.195-1.023-0.241-2.074-0.858-2.914c-1.721-2.344-4.669-3.389-7.468-4.176
					c-11.446-3.218-23.352-4.241-35.181-4.878c-4.004-0.216-11.625-2.09-14.439,1.762c-2.879,3.941,1.602,7.569,4.466,9.759
					C578.054,375.972,583.208,378.261,588.554,379.561z"/>
				
					<path style="clip-path:url(#SVGID_00000070841564221688429870000011673190425349255334_);fill:none;stroke:#363636;stroke-miterlimit:10;" d="
					M495.012,340.124c7.076,2.638,15.007,2.993,22.296,0.999"/>
				<g style="clip-path:url(#SVGID_00000070841564221688429870000011673190425349255334_);">
					<path style="fill:#FFFFFF;" d="M590.355,332.728c-7.569,0.187-15.315,2.631-20.661,7.919
						c-5.346,5.288-7.794,13.68-4.868,20.568c3.354,7.896,12.298,11.822,20.663,14.106c13.194,3.601,28.682,4.532,39.269-4.028
						c1.618-1.309,3.092-2.832,4.092-4.645c2.813-5.1,1.336-11.665-2.092-16.385C618.284,338.596,604.719,332.374,590.355,332.728z"
						/>
					<path style="fill:#FF7A75;" d="M576.313,365.829c-1.943-0.657-3.333-2.671-3.197-4.692c0.136-2.021,1.815-3.851,3.846-4.146
						c2.032-0.295,4.195,1.01,4.814,2.941c0.136,0.425,0.204,0.879,0.125,1.318c-0.091,0.505-0.369,0.958-0.677,1.371
						c-1.022,1.371-2.442,2.451-4.047,3.078"/>
					<path style="fill:#FF7A75;" d="M585.903,361.635c1.972-2.071,5.81-2.317,7.635-0.118c1.565,1.886,1.141,4.921-0.614,6.637
						c-1.337,1.308-5.962,3.019-7.766,1.727C582.873,368.244,584.36,363.255,585.903,361.635z"/>
					<path style="fill:#FF7A75;" d="M582.204,351.752c0.003,0.789,0.092,1.594,0.421,2.313c0.772,1.686,2.888,2.596,4.706,2.14
						c1.818-0.456,3.204-2.142,3.431-3.978c0.227-1.837-0.64-3.731-2.091-4.904c-1.618-1.308-4.085-1.571-5.375,0.279
						C582.438,348.833,582.198,350.293,582.204,351.752z"/>
					<path style="fill:#FF7A75;" d="M600.467,355.25c0.041,1.465-1.092,2.524-2.413,2.896c-0.804,0.226-1.663,0.33-2.476,0.139
						c-1.994-0.469-3.243-2.516-1.578-4.132c0.672-0.653,1.61-0.979,2.544-1.115c0.844-0.123,1.737-0.099,2.508,0.262
						C599.822,353.66,600.443,354.409,600.467,355.25z"/>
					<path style="fill:#FF7A75;" d="M598.617,369.053c-0.691-0.299-1.289-0.762-1.714-1.419c-2.162-3.341,1.517-7.599,5.177-6.977
						c2.116,0.359,3.873,2.134,4.313,4.207c0.151,0.71,0.154,1.479-0.177,2.127c-0.197,0.385-0.503,0.707-0.831,0.992
						C603.832,369.327,600.771,369.985,598.617,369.053z"/>
					<path style="fill:#FF7A75;" d="M602.695,354.122c0.198,1.82,1.317,3.67,3.102,4.172c1.289,0.362,2.725-0.05,3.755-0.896
						c1.029-0.846,1.679-2.079,2.001-3.361c0.538-2.143,0.13-4.608-1.449-6.174C605.284,343.083,602.254,350.077,602.695,354.122z"
						/>
					<path style="fill:#FF7A75;" d="M594.674,338.2c0.379-0.276,0.805-0.516,1.274-0.565c0.387-0.041,0.775,0.051,1.15,0.152
						c1.178,0.316,2.36,0.738,3.293,1.515c3.863,3.212,0.822,9.588-4.068,9.191C591.042,348.063,591.149,340.766,594.674,338.2z"/>
					<path style="fill:#FF7A75;" d="M614.116,360.407c1.004-0.942,2.202-1.817,3.585-1.901c2.198-0.133,4.117,2.017,4.058,4.188
						c-0.059,2.171-1.767,4.088-3.841,4.82C611.573,369.755,609.884,364.38,614.116,360.407z"/>
					<path style="fill:#00458F;" d="M606.462,367.534c-1.207-0.168-2.239-1.126-2.563-2.285c-0.324-1.159,0.034-2.46,0.844-3.358
						c0.811-0.898,2.035-1.393,3.254-1.406c0.475-0.005,0.956,0.061,1.39,0.251c1.431,0.628,1.948,2.546,1.337,3.969
						C610.142,366.061,608.072,367.759,606.462,367.534z"/>
					<path style="fill:#00458F;" d="M581.918,356.45c-0.266-1.375,0.316-2.866,1.423-3.741c1.107-0.876,2.684-1.117,4.022-0.652
						c0.878,0.305,1.677,0.934,1.996,1.796c0.53,1.431-0.378,3.002-1.496,4.054C585.803,359.846,582.521,359.567,581.918,356.45z"/>
					<path style="fill:#00458F;" d="M594.985,349.286c0.14-0.916,1.182-1.666,2.053-1.319c-0.165-0.805-0.245-1.685,0.149-2.409
						c0.394-0.723,1.429-1.15,2.097-0.659c0.251-0.909,1.238-1.559,2.186-1.439c0.948,0.12,1.736,0.994,1.747,1.937
						c0.01,0.943-0.759,1.833-1.704,1.973c1.272,0.058,2.237,1.551,1.754,2.713c-0.453,1.089-1.752,1.544-2.923,1.771
						c-0.517,0.1-1.06,0.178-1.562,0.022c-0.502-0.156-0.945-0.615-0.907-1.132C598.074,352.526,594.656,351.431,594.985,349.286z"
						/>
					<path style="fill:#00458F;" d="M593.201,363.572c0.704-0.172,1.421,0.033,1.411,0.844c0.19-1.228,1.689-2.751,2.782-1.293
						c0.474,0.633,0.256,1.655-0.436,2.047c0.455-0.538,1.38-0.503,1.908-0.035s0.694,1.24,0.582,1.931
						c-0.151,0.933-0.772,1.781-1.623,2.215c-0.608,0.311-1.368,0.405-1.974,0.092c-0.607-0.314-0.967-1.103-0.664-1.709
						c0.048,0.678-0.069,1.404-0.516,1.922c-0.447,0.518-1.286,0.738-1.852,0.349c-0.721-0.495-0.717-1.541-0.533-2.293
						c-1.833,0.288-2.185-2.498-0.326-2.291C591.579,364.485,592.381,363.772,593.201,363.572z"/>
					<path style="fill:#00458F;" d="M610.14,355.762c-0.184-0.697,0.029-1.51,0.607-1.949c0.578-0.44,1.51-0.399,1.974,0.157
						c-0.178-1.143,0.343-2.365,1.296-3.038c0.52-0.368,1.276-0.559,1.781-0.171c0.627,0.483,0.441,1.447,0.195,2.193
						c0.802-0.241,1.738,0.034,2.274,0.669c0.405,0.479,0.567,1.21,0.224,1.734c-0.141,0.215-0.353,0.378-0.583,0.496
						c-0.736,0.378-1.691,0.296-2.349-0.202c0.475,0.652,0.564,1.558,0.226,2.289c-0.136,0.294-0.351,0.57-0.653,0.694
						c-0.382,0.157-0.839,0.037-1.164-0.216c-0.325-0.253-0.54-0.618-0.712-0.99c-0.093,0.481-0.204,0.997-0.566,1.332
						c-0.362,0.335-1.064,0.344-1.273-0.101c-0.241-0.514-0.048-1.002-0.296-1.512C610.873,356.635,610.307,356.397,610.14,355.762z
						"/>
					<path style="fill:#00458F;" d="M594.376,360.167c-0.828-0.475-1.467-1.261-1.759-2.161c-0.133-0.409-0.194-0.855-0.072-1.267
						c0.122-0.412,0.459-0.78,0.888-0.852c0.819-0.137,1.4,0.744,1.742,1.491c0.342-0.497,0.764-1.013,1.361-1.131
						c0.844-0.167,1.671,0.641,1.685,1.49c0.014,0.849-0.622,1.614-1.404,1.968c-0.782,0.354-1.681,0.362-2.535,0.252"/>
					<path style="fill:#00458F;" d="M573.735,349.501c0.233-1.002,1.042-1.813,1.994-2.23c0.229-0.1,0.477-0.182,0.727-0.154
						c0.856,0.095,1.078,1.279,1.814,1.719c0.173-0.349,0.345-0.698,0.518-1.046c0.377-0.762,0.767-1.541,1.391-2.125
						c0.624-0.583,1.541-0.939,2.358-0.677c0.313,0.1,0.604,0.294,0.775,0.571c0.203,0.328,0.222,0.735,0.174,1.116
						c-0.096,0.767-0.449,1.501-0.989,2.061c0.366-0.323,1.004-0.057,1.202,0.386c0.198,0.443,0.084,0.958-0.07,1.418
						c-0.211,0.628-0.492,1.234-0.837,1.802c-0.237,0.39-0.517,0.776-0.919,1c-0.361,0.201-0.785,0.253-1.197,0.3
						c-0.991,0.115-1.994,0.229-2.985,0.109C575.691,353.506,573.196,351.82,573.735,349.501z"/>
				</g>
				<path style="clip-path:url(#SVGID_00000070841564221688429870000011673190425349255334_);fill:#FFFFFF;" d="M627.714,396.196
					c-0.222,0.009-0.444,0.02-0.666,0.031c-10.783,0.558-20.74,1.948-31.658-0.119c-7.586,11.262-16.62,21.575-26.817,30.613
					c9.821,4.491,21,4.7,31.692,6.375c3.908,0,8.575,2.376,12.242,3.535c2.737,0.865,3.894,1.364,6.659,0.567
					c2.398-0.691,4.766-1.51,7.144-2.263c2.563-0.812,5.128-1.625,7.629-2.606c0.443-0.174,0.896-0.361,1.232-0.693
					c0.369-0.365,0.557-0.865,0.753-1.342c2.095-5.095,6.54-10.249,10.695-13.852c2.509-2.176,5.343-3.968,7.821-6.178
					c3.34-2.978,5.994-6.699,7.706-10.806C651.081,397.844,638.961,395.72,627.714,396.196z"/>
				<path style="clip-path:url(#SVGID_00000070841564221688429870000011673190425349255334_);fill:#363636;" d="M620.598,418.345
					c-0.299,0-0.599-0.018-0.898-0.059c-1.586-0.217-3.19-1.205-3.824-2.892c-1.397,1.28-3.091,2.64-4.816,2.109
					c-1.217-0.374-2.212-1.451-3.378-1.988c-1.599-0.736-1.99-0.556-3.933-0.367c-0.857,0.083-1.99-0.185-2.087-1.167
					c-0.16-1.621,2.635-2.757,3.669-2.365c-0.526-1.401-0.393-3.121,0.579-4.232c0.967-1.105,2.598-1.337,3.769-0.535
					c-0.182-2.034,0.582-4.148,1.963-5.433c1.381-1.285,3.337-1.702,5.026-1.07c0.333,0.124,0.692,0.287,1.02,0.147
					c0.475-0.203,0.596-0.89,0.737-1.451c0.865-3.451,4.558-4.686,7.677-4.785c3.166-0.099,6.226,0.995,7.836,4.431
					c1.637-1.205,3.622-1.913,5.537-1.537c1.953,0.383,3.384,1.933,4.217,3.918c1.071-0.488,2.316-0.759,3.422-0.192
					c1.063,0.545,1.852,1.745,2.019,3.071c-0.047-0.368,5.94-0.595,2.247,3.466c-1.996,2.194-5.059,2.487-7.618,3.067
					c-2.88,0.652-5.597,2.461-8.692,1.728c-2.747,3.248-6.802,4.421-10.636,5.454C623.173,418.002,621.886,418.344,620.598,418.345z
					"/>
				<path style="clip-path:url(#SVGID_00000070841564221688429870000011673190425349255334_);fill:#FFBF52;" d="M587.686,419.422
					c-1.152-2.292-4.038-3.339-5.932-1.837c-1.873,1.486-1.808,5.179,0.185,6.469c-2.548-1.65-2.431,3.086-1.533,4.422
					c1.566,2.329,5.146,2.606,6.622,0.045c1.984,1.731,5.168,1.567,6.62-0.98c1.975,1.158,4.044,2.342,6.26,2.352
					c2.216,0.01,4.607-1.556,4.989-4.07c2.416,0.918,4.988,1.285,7.525,1.076c4.481-0.371,7.767-4.465,5.821-8.816
					c1.188,0.073,2.393-0.142,3.483-0.622c0.686-0.302,1.358-0.743,1.68-1.42c0.411-0.865,0.159-1.883-0.099-2.805
					c0.754,0.012,1.627-0.04,2.072-0.648c0.17-0.231,0.251-0.518,0.277-0.804c0.085-0.943-0.465-1.912-1.319-2.322
					c-0.854-0.41-1.953-0.234-2.637,0.422c-0.556-1.27-1.936-2.023-3.31-2.208c-1.307-0.176-2.595,0.438-3.835,0.309
					c-1.086-0.113-1.372-1.144-2.071-1.806c-0.689-0.652-1.581-1.092-2.497-1.318c-1.583-0.392-3.245-0.23-4.866-0.051
					c-1.47,0.162-2.955,0.34-4.341,0.855c-2.534,0.941-5.028,3.659-4.744,6.535c0.014-0.903-0.825-1.642-1.711-1.813
					c-0.886-0.171-1.796,0.092-2.646,0.397c-1.026,0.368-2.046,0.811-2.878,1.515C586.811,413.981,586.486,417.19,587.686,419.422z"
					/>
				
					<path style="clip-path:url(#SVGID_00000070841564221688429870000011673190425349255334_);fill:none;stroke:#363636;stroke-miterlimit:10;" d="
					M562.135,398.278c1.886-1.683,3.966-3.156,6.186-4.381"/>
				
					<path style="clip-path:url(#SVGID_00000070841564221688429870000011673190425349255334_);fill:none;stroke:#363636;stroke-miterlimit:10;" d="
					M532.992,376.422c1.611,1.802,2.007,4.567,0.965,6.738"/>
				
					<path style="clip-path:url(#SVGID_00000070841564221688429870000011673190425349255334_);fill:none;stroke:#363636;stroke-miterlimit:10;" d="
					M564.305,383.493c1.82-1.33,4.111-2.021,6.374-1.922"/>
				<path style="clip-path:url(#SVGID_00000070841564221688429870000011673190425349255334_);fill:#38965F;" d="M573.54,395.735
					c3.629,0.596,7.036,2.434,9.503,5.126c-0.802,0.851-1.886,1.395-2.996,1.786c-2.968,1.045-6.287,1.092-9.283,0.129
					c-1.538-0.494-7.394-3.136-6.947-5.325C564.296,395.102,571.856,395.459,573.54,395.735z"/>
				
					<path style="clip-path:url(#SVGID_00000070841564221688429870000011673190425349255334_);fill:none;stroke:#363636;stroke-width:0.5;stroke-miterlimit:10;" d="
					M605.386,425.857c-1.181-3.403-3.123-6.642-5.202-9.596c-0.941-1.337-2.7-3.282-4.148-4.063"/>
				
					<path style="clip-path:url(#SVGID_00000070841564221688429870000011673190425349255334_);fill:none;stroke:#363636;stroke-width:0.5;stroke-miterlimit:10;" d="
					M580.478,424.322c-0.059-0.456,0.359-0.873,0.817-0.956c0.458-0.083,0.926,0.091,1.328,0.324
					c1.211,0.701,2.053,1.988,2.202,3.365c0.057,0.53-0.025,1.149-0.473,1.449c-0.498,0.334-1.221,0.082-1.594-0.385
					c-0.372-0.467-0.484-1.08-0.583-1.666c0.13-0.156,0.429-0.107,0.502,0.082"/>
				<path style="opacity:0.21;clip-path:url(#SVGID_00000070841564221688429870000011673190425349255334_);fill:#857966;" d="
					M531.77,401.479c3.237-0.031,6.753-0.467,9.06-2.736c0.168-0.165,0.333-0.348,0.398-0.575c0.118-0.417-0.137-0.851-0.444-1.157
					c-1.134-1.132-2.905-1.254-4.507-1.255c-2.724-0.003-5.45,0.38-8.166,0.337c-1.696-0.027-3.414-0.668-4.906,0.533
					C518.906,400.089,529.577,401.5,531.77,401.479z"/>
				
					<path style="clip-path:url(#SVGID_00000070841564221688429870000011673190425349255334_);fill:none;stroke:#363636;stroke-width:0.5;stroke-miterlimit:10;" d="
					M587.255,418.488c0.338,0.156,0.649,0.361,0.96,0.566c1.372,0.904,2.756,1.817,3.89,2.999c1.134,1.181,2.012,2.671,2.154,4.291
					c0.044,0.503,0.017,1.008-0.01,1.512"/>
				
					<path style="clip-path:url(#SVGID_00000070841564221688429870000011673190425349255334_);fill:none;stroke:#363636;stroke-width:0.5;stroke-miterlimit:10;" d="
					M613.887,407.754c1.645,2.919,3.255,7.044,4.021,10.306"/>
				
					<path style="clip-path:url(#SVGID_00000070841564221688429870000011673190425349255334_);fill:none;stroke:#363636;stroke-width:0.5;stroke-miterlimit:10;" d="
					M623.457,413.646c-0.448-1.608-1.122-3.154-1.995-4.576"/>
				<path style="clip-path:url(#SVGID_00000070841564221688429870000011673190425349255334_);fill:#38965F;" d="M520.937,391.051
					c-0.627-3.775,1.658-7.83,5.239-9.298c1.549-0.635,3.251-0.815,4.928-0.833c2.484-0.027,5.025,0.303,7.235,1.421
					c2.21,1.118,4.052,3.114,4.532,5.517C545.229,399.663,523.118,404.183,520.937,391.051z"/>
			</g>
			<path style="fill:none;stroke:#393039;stroke-width:0.75;stroke-miterlimit:10;" d="M451.729,464.343
				c0.2-0.317-0.618-0.271-0.517,0.089s0.584,0.422,0.962,0.413c13.259-0.304,26.528-0.185,39.78,0.356"/>
			<path style="fill:none;stroke:#393039;stroke-width:0.75;stroke-miterlimit:10;" d="M449.855,473.29
				c38.991-0.472,77.971-1.8,116.901-3.985"/>
			<path style="fill:#E0E0E0;" d="M617.164,437.877c2.11-2.59,3.883-5.447,5.262-8.478c4.308,0.851,8.612,1.723,12.911,2.615"/>
		</g>
		<g style="clip-path:url(#SVGID_00000021102367142690329100000003313452076556574651_);">
			<g>
				<defs>
					
						<rect id="SVGID_00000169543671077675620320000001268360564703911824_" x="127.605" y="29.362" width="196.102" height="170.657"/>
				</defs>
				<clipPath id="SVGID_00000060004537635346492590000017839240512532573319_">
					<use xlink:href="#SVGID_00000169543671077675620320000001268360564703911824_"  style="overflow:visible;"/>
				</clipPath>
				
					<rect x="127.605" y="29.362" style="clip-path:url(#SVGID_00000060004537635346492590000017839240512532573319_);fill:#38965F;" width="196.102" height="170.657"/>
				<g style="clip-path:url(#SVGID_00000060004537635346492590000017839240512532573319_);">
					<g>
						<path style="fill:#FFBF52;" d="M212.256,235.827c-0.439-7.123-3.597-16.859,2.21-21.558
							c6.385-5.166,21.469-6.189,29.366-7.135c-1.288,8.641-2.214,17.337-2.776,26.055c-0.16,2.487-0.249,5.152,1.058,7.275
							c1.736,2.82,5.318,3.766,8.552,4.475c4.386,0.962,9.135,1.891,13.228,0.045c4.093-1.846,6.542-7.75,3.411-10.968
							c2.99-1.241,6.212-1.917,9.449-1.982c1.235,3.567,5.066,5.802,8.838,5.958c3.771,0.156,7.429-1.445,10.516-3.616
							c0.596-0.419,1.222-0.933,1.333-1.652c0.101-0.65-0.253-1.279-0.629-1.819c-3.399-4.873-9.885-7.855-10.99-13.693
							c-0.483-2.554,0.213-5.162,0.753-7.704c1.929-9.079,1.888-18.572-0.118-27.635c-0.769-3.472-3.428-7.757-6.739-6.459
							c-8.193-23.069-18.573-47.119-20.7-71.718c-0.171-1.981-0.279-4.011,0.255-5.927c0.759-2.723,2.719-4.917,4.524-7.093
							c9.809-11.829,16.589-26.149,19.522-41.233c-16.158-3.088-33.758,3.048-44.494,15.511c-13.175-5.495-28.172-6.51-41.968-2.842
							c-9.086-10.808-18.173-21.617-27.259-32.425c-5.828-6.932-9.388,14.756-9.656,17.779c-1.066,11.996,0.017,25.272,8.259,34.053
							c1.586,1.69,3.414,3.182,4.688,5.119c3.173,4.824,2.095,10.743,0.855,15.998c-1.18,5.002-1.338,10.086-0.446,15.187
							c0.907,5.186,2.839,10.208,5.695,14.634c0.724,1.121,10.451,11.256,10.663,10.668c-10.711,29.674,1.336,63.057-4.969,93.968
							c-0.409,2.007-0.887,4.141-0.15,6.052c1.632,4.228,7.493,4.332,11.979,3.688c2.949-0.423,5.897-0.846,8.846-1.27
							c1.722-0.247,3.544-0.537,4.871-1.663C212.43,242.033,212.434,238.704,212.256,235.827z"/>
						<path style="fill:#FF6B53;" d="M192.148,124.73c-1.273,2.488-1.652,5.528-0.557,8.099c1.096,2.571,3.834,4.487,6.613,4.187
							c0.775-0.084,1.546-0.336,2.156-0.821c1.479-1.176,1.652-3.301,2.195-5.111c1.071-3.566,3.888-6.325,6.835-8.602
							c1.006-0.778,2.161-1.793,1.954-3.048c-0.176-1.073-1.285-1.714-2.314-2.065C202.521,115.151,195.196,118.771,192.148,124.73z
							"/>
						<path style="fill:none;stroke:#393039;stroke-width:0.5;stroke-miterlimit:10;" d="M204.13,117.045
							c-3.489,2.428-5.777,6.734-5.895,11.093"/>
						<path style="fill:#FBF9FC;" d="M213.695,96.485c-2.767-2.485-6.106-4.731-9.825-4.724c-4.729,0.009-8.61,3.579-11.863,7.011
							c-2.367,2.497-4.721,5.103-6.123,8.245c-1.402,3.142-1.724,6.951-0.036,9.949c1.688,2.998,5.721,4.726,8.791,3.174
							c1.006-0.508,1.853-1.312,2.903-1.719c3.048-1.181,6.145,1.293,9.194,2.471c4.355,1.683,9.387,0.642,13.453-1.655
							c4.083-2.306,14.23-9.206,10.652-13.338c-1.291-1.491-6.654-1.442-8.541-2.37C218.958,101.885,216.428,98.939,213.695,96.485z
							"/>
						<path style="fill:#393039;" d="M196.349,101.077c0.1-0.002,0.2-0.002,0.3-0.002c3.729,0.025,11.381,0.345,11.055,5.718
							c-0.142,2.33-1.648,4.35-3.306,5.994c-1.547,1.534-3.33,2.905-5.409,3.554c-2.079,0.65-4.498,0.485-6.238-0.827
							c-1.913-1.443-3.668-4.429-3.977-6.781c-0.259-1.97,0.32-4.078,1.707-5.5C191.975,101.703,194.201,101.114,196.349,101.077z"
							/>
						
							<line style="fill:none;stroke:#393039;stroke-width:2;stroke-miterlimit:10;" x1="260.274" y1="96.625" x2="246.799" y2="88.549"/>
						<path style="fill:#0571E6;" d="M220.993,106.816c7.855,3.52,18.188,2.152,22.384-5.768c0.423-0.798,4.04-10.008,3.588-10.173
							c0.333,0.122,0.755,0.187,1.052,0.292c0.355-1.224,0.79-2.443,0.97-3.681c-11.823-5.474-25.858-6.533-38.708-5.812
							c-13.107,0.735-26.007,3.507-38.806,6.427c-0.015,0.003-0.367,3.705-0.298,4.058c0.088,0.451,1.427,0.587,1.654,1.505
							c1.327,5.373-2.942,17.129,7.12,14.968c8.992-1.931,12.379-10.484,19.377-15.169c1.596-1.068,3.354-1.978,5.26-2.217
							c4.5-0.564,5.18,2.072,6.544,5.372c1.447,3.5,3.925,6.587,7.09,8.677C219.095,105.875,220.025,106.382,220.993,106.816z"/>
						<path style="fill:#393039;" d="M216.133,97.208c1.842,3.37,4.808,6.232,8.467,7.397c1.89,0.602,3.901,0.741,5.883,0.668
							c1.656-0.06,3.376-0.289,4.76-1.201c1.663-1.096,2.584-2.995,3.392-4.815c1.446-3.257,2.784-6.562,4.009-9.909
							c-2.588-1.381-5.586-1.721-8.503-2.036c-3.962-0.429-7.923-0.857-11.885-1.286c-2.168-0.234-7.533-1.467-8.871,0.874
							C212.141,89.079,215.088,95.296,216.133,97.208z"/>
						<path style="fill:none;stroke:#393039;stroke-width:0.75;stroke-miterlimit:10;" d="M250.855,79.36
							c-0.622-1.749,0.082-3.684,0.981-5.308c4.268-7.71,13.304-13.397,21.785-15.235"/>
						<path style="fill:#393039;" d="M179.843,104.725c-0.957,0.452-2.264,0.781-2.937-0.036c-0.317-0.385-0.375-0.915-0.417-1.412
							c-0.357-4.296-0.245-8.627-0.163-12.867c5.527-1.341,11.239-2.188,16.859-3.073c3.371-0.531-2.23,8.797-3.023,9.729
							C187.383,100.337,183.709,102.899,179.843,104.725z"/>
						<path style="fill:none;stroke:#393039;stroke-width:0.75;stroke-miterlimit:10;" d="M170.205,39.104
							c0.278-0.317,0.794-0.054,1.107,0.229c3.72,3.36,5.593,8.252,7.339,12.951c2.195,5.909,3.476,13.564,3.073,19.89"/>
						<path style="fill:none;stroke:#393039;stroke-width:0.75;stroke-miterlimit:10;" d="M252.986,72.036
							c3.291-1.815,7.035-2.801,10.792-2.841"/>
						<path style="fill:none;stroke:#393039;stroke-width:0.75;stroke-miterlimit:10;" d="M180.722,61.076
							c-2.925-2.392-6.048-4.54-9.328-6.416"/>
						<path style="fill:none;stroke:#393039;stroke-width:5;stroke-miterlimit:10;" d="M187.646,143.432
							c25.406,6.848,56.163-1.267,76.132-18.401"/>
						<path style="fill:#E84B4B;" d="M211.969,142.621c-0.542-1.42-0.914-3.118-0.07-4.383c0.915-1.372,2.961-1.59,4.449-0.88
							c1.489,0.71,2.521,2.106,3.384,3.511c-0.489-2.422,0.927-5.196,3.3-5.886c2.372-0.69,5.238,1.227,5.195,3.698
							c-0.014,0.814-0.304,1.597-0.616,2.349c-1.174,2.832-4.146,9.9-7.567,10.623C216.301,152.445,213.044,145.437,211.969,142.621
							z"/>
						<path style="fill:none;stroke:#393039;stroke-width:0.75;stroke-miterlimit:10;" d="M244.016,208.484
							c0.454-10.914,5.551-21.025,10.541-30.742"/>
						<path style="fill:none;stroke:#393039;stroke-width:0.75;stroke-miterlimit:10;" d="M279.367,176.8
							c0.373,3.811,0.745,7.664,0.218,11.457c-1.167,8.397-6.534,15.492-10.61,22.926c-4.076,7.434-5.699,15.373-1.67,22.832"/>
						<path style="fill:none;stroke:#393039;stroke-width:0.75;stroke-miterlimit:10;" d="M192.43,237.454
							c-0.563,3.036-0.005,6.266,1.545,8.937"/>
						<path style="fill:none;stroke:#393039;stroke-width:0.75;stroke-miterlimit:10;" d="M198.852,238.378
							c-0.319,2.702-0.022,5.475,0.864,8.048"/>
						<path style="fill:none;stroke:#393039;stroke-width:0.75;stroke-miterlimit:10;" d="M205.96,238.38
							c0.24,1.94,0.118,3.924-0.359,5.819"/>
						<path style="fill:none;stroke:#393039;stroke-width:0.75;stroke-miterlimit:10;" d="M250.392,235.293
							c-0.688,2.563-0.408,5.373,0.773,7.75"/>
						<path style="fill:none;stroke:#393039;stroke-width:0.75;stroke-miterlimit:10;" d="M255.164,237.033
							c0.316,2.381,0.632,4.761,0.947,7.142"/>
						<path style="fill:none;stroke:#393039;stroke-width:0.75;stroke-miterlimit:10;" d="M261.355,237.95
							c0.968,1.911,1.16,4.201,0.524,6.247"/>
						<path style="fill:none;stroke:#393039;stroke-width:0.75;stroke-miterlimit:10;" d="M211.768,216.076
							c-0.189-1.134,0.62-2.178,0.844-3.306c0.442-2.22-1.365-4.17-2.824-5.901c-7.353-8.726-8.35-20.986-9.016-32.378"/>
					</g>
				</g>
			</g>
			<path style="fill:none;stroke:#393039;stroke-width:0.75;stroke-miterlimit:10;" d="M130.904,211.1
				c53.676-1.454,91.43,0.535,141.849-1.751"/>
			<path style="fill:none;stroke:#393039;stroke-width:0.75;stroke-miterlimit:10;" d="M133.027,221.13
				c-1.92,0.068,23.256-0.844,37.606-0.853"/>
		</g>
		<g style="clip-path:url(#SVGID_00000021102367142690329100000003313452076556574651_);">
			<path style="fill:#FFB875;" d="M670.519,185.913c-1.795-0.291-3.424,0.181-5.164,0.518c-2.097,0.406-4.215,0.724-6.321,1.086
				c0.04-0.007,2.729,8.904,2.967,9.61c1.211,3.595,2.95,7.009,5.113,10.123c3.026,4.357,6.893,8.139,11.348,11.023
				c4.942,3.199,7.906,4.478,13.555,2.197c4.04-1.632,5.42-5.302,6.837-9.282c1.888-5.304,1.653-10.129-3.269-13.175
				c-6.532-4.041-13.497-7.174-20.382-10.538C673.768,186.775,672.135,186.175,670.519,185.913z"/>
			<path style="fill:#FFB875;" d="M666.027,117.31c0.836,10.784,2.113,21.501,3.827,32.137c0.976,6.054,10.228,4.706,9.244-1.4
				c-1.714-10.636-2.99-21.354-3.827-32.137C674.793,109.742,665.548,111.134,666.027,117.31z"/>
			<path style="fill:#FFB875;" d="M664.242,178.952c0.42,3.26,4.093,4.672,6.73,3.635c-2.906-10.372-4.011-20.978-4.715-31.651
				c-0.304,8.577-0.939,17.144-1.905,25.69c-1.631-19.061-2.429-38.193-2.285-57.324c0.019-2.58-1.305-4.929-4.069-5.333
				c-2.29-0.334-5.313,1.511-5.333,4.07c-0.152,20.142,0.587,40.264,2.321,60.333C655.456,183.805,663.007,183.429,664.242,178.952z
				"/>
			<path style="fill:#FFB875;" d="M683.425,252.51c-5.049-16.311-7.296-33.274-6.107-49.803c0.261-3.625,1.515-7.312,4.153-9.813
				c1.838-1.743,4.211-2.799,6.574-3.71c3.989-1.537,8.167-2.767,12.442-2.815c12.208-0.138,17.048,10.188,20.413,20.198
				c3.93,11.693,9.81,22.9,16.318,33.381c13.046,21.011,30.073,39.562,49.999,54.223c3.679,2.707,7.652,5.531,9.306,9.789
				c2.339,6.025-0.778,12.802-4.758,17.894c-6.152,7.873-14.505,13.768-23.848,17.239c-6.619,2.459-15.284,1.366-21.164-2.296
				C717.146,318.362,694.064,286.882,683.425,252.51z"/>
			<g>
				<path style="fill:#2D2D2D;" d="M738.758,171.506l-15.097,35.456c-2.225,5.226-8.265,7.658-13.491,5.433l-95.626-40.717
					c-5.226-2.225-7.658-8.265-5.433-13.491l15.097-35.456c2.225-5.226,8.265-7.658,13.491-5.433l95.626,40.717
					C738.529,160.231,740.974,166.302,738.758,171.506z"/>
				<path style="fill:#F2F5F8;" d="M736.967,170.841l-15.026,35.291c-1.843,4.328-6.846,6.343-11.174,4.5l-95.698-40.747
					c-4.328-1.843-6.343-6.845-4.5-11.174l15.026-35.29c1.843-4.328,6.846-6.343,11.174-4.5l95.698,40.747
					C736.777,161.503,738.802,166.531,736.967,170.841z"/>
				<g>
					<path style="fill:#363636;" d="M627.619,165.564c1.624,0.692,2.38,2.569,1.689,4.193s-2.569,2.38-4.193,1.689
						c-1.624-0.692-2.38-2.569-1.689-4.193S625.995,164.873,627.619,165.564z"/>
				</g>
				<path style="fill:#2D2D2D;" d="M611.329,153.892l2.302,0.71c1.505,0.465,3.196-0.443,3.899-2.094l8.418-19.771
					c0.703-1.65,0.185-3.499-1.193-4.262l-2.108-1.167L611.329,153.892z"/>
				
					<rect x="647.695" y="130.2" transform="matrix(0.3918 -0.9201 0.9201 0.3918 258.5608 722.05)" style="fill:#0571E6;" width="55.391" height="70.533"/>
				<text transform="matrix(0.3918 -0.9201 0.9201 0.3918 643.7998 128.8989)" style="font-family:'OpenSans'; font-size:4.751px;">...</text>
				<path style="fill:none;stroke:#2D2D2D;stroke-width:0.5;stroke-linecap:round;stroke-miterlimit:10;" d="M703.849,202.111
					c4.301-11.041,8.788-22.011,13.457-32.901"/>
				<path style="fill:none;stroke:#2D2D2D;stroke-width:0.5;stroke-linecap:round;stroke-miterlimit:10;" d="M708.345,201.188
					c1.76-4.367,3.52-8.735,5.28-13.102c0.203-0.504,0.401-1.102,0.113-1.564"/>
				<path style="fill:none;stroke:#2D2D2D;stroke-width:0.5;stroke-linecap:round;stroke-miterlimit:10;" d="M627.874,162.26
					c2.691-6.731,5.308-13.492,7.849-20.281"/>
				<path style="fill:none;stroke:#2D2D2D;stroke-width:0.5;stroke-linecap:round;stroke-miterlimit:10;" d="M631.443,161.958
					c1.029-4.451,2.67-8.76,4.861-12.769"/>
			</g>
			<path style="fill:#FFB875;" d="M685.652,127.208c-1.187,0.204-2.388,0.749-3.115,1.754c-0.8,1.106-0.989,2.2-0.992,3.549
				c-0.003,1.447-0.007,2.893-0.01,4.34c-0.003,1.1,0.938,2.467,1.754,3.115c0.922,0.732,2.368,1.195,3.549,0.992
				c1.187-0.204,2.388-0.749,3.115-1.754c0.8-1.106,0.989-2.2,0.992-3.549c0.003-1.447,0.007-2.893,0.01-4.34
				c0.003-1.1-0.938-2.467-1.754-3.115C688.279,127.467,686.833,127.005,685.652,127.208z"/>
			<path style="fill:#FFB875;" d="M696.772,138.816c-2.391,5.615,6.331,9.339,8.726,3.715
				C707.888,136.917,699.166,133.192,696.772,138.816z"/>
			<path style="fill:#FFFFFF;" d="M662.558,153.932c-1.025,10.287-0.766,20.703,0.786,30.924c2.873-2.802,5.746-5.604,8.62-8.406
				c3.207-3.126,3.099-3.626,6.731-2.67c1.037,0.273,16.148,3.944,15.653,2.912c-6.391-13.327-15.443-25.372-26.465-35.22
				c-0.812-0.725-2.027-1.463-2.886-0.795c-0.442,0.344-0.583,0.94-0.692,1.489C663.534,146.057,662.951,149.985,662.558,153.932z"
				/>
			<path style="fill:#FFB875;" d="M677.941,189.077c-0.194-0.112-0.388-0.223-0.581-0.335c-2.398-1.378-4.907-2.844-6.327-5.217
				c-2.264-3.784,1.535-7.628,1.797-11.467c0.19-2.788-1.614-5.347-3.819-6.896c-2.363-1.659-4.463-0.537-5.722,1.781
				c-1.93,3.554-3.877,7.136-5.152,10.988c-1.169,3.532-0.345,6.978,0.845,10.428c0.62,1.799,1.241,3.597,1.861,5.396
				c0.533,1.544,1.077,3.112,2.024,4.443c1.544,2.169,3.942,3.452,5.943,5.133c2.112,1.774,4.137,3.633,6.648,4.868
				c3.635,1.788,7.355,1.836,11.308,2.073c1.696,0.102,3.558,0.156,4.904-0.883c1.049-0.809,1.572-2.171,1.594-3.496
				c0.022-1.325-0.404-2.62-0.967-3.82c-1.44-3.072-3.777-5.655-6.414-7.79C683.419,192.291,680.688,190.661,677.941,189.077z"/>
			<path style="fill:none;stroke:#2D2D2D;stroke-width:0.5;stroke-linecap:round;stroke-miterlimit:10;" d="M676.033,187.862
				c16.351,9.091,17.72,17.124,22.434,29.02"/>
			<path style="fill:none;stroke:#2D2D2D;stroke-width:0.5;stroke-linecap:round;stroke-miterlimit:10;" d="M656.116,122.025
				c0.715,0.371,1.649,0.265,2.262-0.257"/>
			<path style="fill:none;stroke:#2D2D2D;stroke-width:0.5;stroke-linecap:round;stroke-miterlimit:10;" d="M667.917,119.06
				c0.701,1.032,1.818,1.774,3.041,2.02c1.224,0.246,2.54-0.006,3.586-0.687"/>
		</g>
		
			<path style="clip-path:url(#SVGID_00000021102367142690329100000003313452076556574651_);fill:none;stroke:#2D2D2D;stroke-width:0.5;stroke-linecap:round;stroke-miterlimit:10;" d="
			M662.187,184.159c1.832,1.987,5.602,1.513,6.886-0.865c0.485-0.899,0.631-1.937,0.759-2.95"/>
		
			<path style="clip-path:url(#SVGID_00000021102367142690329100000003313452076556574651_);fill:none;stroke:#393039;stroke-width:0.75;stroke-miterlimit:10;" d="
			M358.766,306.466c-16.568-0.558-33.835-0.317-48.713,6.995c-2.6,1.278-5.207,2.865-6.69,5.353
			c-1.378,2.311-1.615,5.109-1.718,7.798c-0.498,12.895,1.304,25.875,5.297,38.146c-0.464-7.693,9.435-11.143,17.122-11.703
			c35.37-2.58,71.121,3.594,106.281-1.042c18.786-2.477,33.243-26.284,12.651-37.958c-9.59-5.436-27.895-3.736-38.702-4.684
			C389.143,308.044,373.967,306.978,358.766,306.466z"/>
		
			<path style="clip-path:url(#SVGID_00000021102367142690329100000003313452076556574651_);fill:none;stroke:#393039;stroke-width:0.75;stroke-miterlimit:10;" d="
			M534.052,35.682c10.605-8.642,27.312-7.395,40.058-8.045c20.549-1.048,41.102-0.523,61.542,1.918
			c10.964,1.309,22.761,3.6,30.159,11.797c3.167,3.509,5.333,8.161,4.94,12.872c-0.915,10.974-13.823,16.167-24.642,18.22
			c-25.753,4.887-52.262,5.774-78.285,2.617c-8.931-1.083-18.019-2.636-26.853-0.925c-9.839,1.906-10.887,8.754-17.994,14.261
			c-0.422-6.787,0.153-13.82,0.377-20.687c0.33-10.128,0.963-21.09,7.476-28.853C531.824,37.672,532.902,36.619,534.052,35.682z"/>
		
			<path style="clip-path:url(#SVGID_00000021102367142690329100000003313452076556574651_);fill:none;stroke:#393039;stroke-width:0.75;stroke-miterlimit:10;" d="
			M116.689,45.712c4.517,0.034,9.163,0.139,13.325,1.895c20.347,8.585,11.405,34.231,8.347,50.437
			c-1.524-4.561-1.243-10.535-5.438-12.885c-1.831-1.026-4.047-0.993-6.145-0.933c-26.12,0.751-52.24,1.502-78.36,2.253
			c-6.02,0.173-11.247-1.446-15.576-6.027c-4.909-5.196-5.641-13.543-2.62-20.021c6.829-14.641,22.226-12.48,35.767-13.398
			C82.861,45.89,99.782,45.586,116.689,45.712z"/>
		
			<path style="clip-path:url(#SVGID_00000021102367142690329100000003313452076556574651_);fill:none;stroke:#393039;stroke-width:0.75;stroke-miterlimit:10;" d="
			M309.993,406.541c0.402-6.959,1.07-14.695,7.185-19.065c3.489-2.493,7.705-3.727,11.872-4.741
			c17.708-4.307,36.193-5.342,54.28-3.149c8.272,1.003,23.862,0.452,29.749,7.109c3.424,3.872,5.007,9.306,4.199,14.411
			c-0.809,5.105-3.993,9.784-8.447,12.409c-10.099,5.952-26.53,4.677-37.712,4.139c-13.866-0.668-27.629-2.633-41.37-4.52
			c-2.564-0.352-5.224-0.695-7.699,0.063c-5.505,1.685-8.277,8.005-10.2,12.911C309.036,420.214,309.622,412.957,309.993,406.541z"
			/>
		
			<path style="clip-path:url(#SVGID_00000021102367142690329100000003313452076556574651_);fill:none;stroke:#393039;stroke-width:0.75;stroke-miterlimit:10;" d="
			M547.29,45.014c34.284,0.095,68.569,0.189,102.853,0.284"/>
		
			<path style="clip-path:url(#SVGID_00000021102367142690329100000003313452076556574651_);fill:none;stroke:#393039;stroke-width:0.75;stroke-miterlimit:10;" d="
			M332.695,395.662c18.773,0.207,37.545,0.415,56.318,0.622"/>
		
			<path style="clip-path:url(#SVGID_00000021102367142690329100000003313452076556574651_);fill:none;stroke:#393039;stroke-width:0.75;stroke-miterlimit:10;" d="
			M547.286,55.701c22.099-0.51,44.223,0.106,66.259,1.844"/>
		
			<path style="clip-path:url(#SVGID_00000021102367142690329100000003313452076556574651_);fill:none;stroke:#393039;stroke-width:0.75;stroke-miterlimit:10;" d="
			M333.823,402.795c19.482,1.247,35.259,1.921,54.623-0.563"/>
		<path style="clip-path:url(#SVGID_00000021102367142690329100000003313452076556574651_);fill:#E84B4B;" d="M67.623,77.433
			c-3.483-2.426-6.47-5.559-8.728-9.153c-1.519-2.418-2.646-5.748-0.839-7.96c1.55-1.898,4.625-1.861,6.701-0.558
			c2.075,1.303,3.369,3.525,4.507,5.695c-0.304-1.838,0.819-3.63,2.187-4.895c2.236-2.068,6.209-3.033,8.091-0.639
			c1.788,2.273,0.299,5.59-1.386,7.941c-2.35,3.277-5.048,6.305-8.034,9.015"/>
		<path style="clip-path:url(#SVGID_00000021102367142690329100000003313452076556574651_);fill:#E84B4B;" d="M95.603,76.227
			c-2.23-3.514-3.818-7.435-4.661-11.511c-0.17-0.82-0.307-1.688-0.04-2.481c0.577-1.718,2.864-2.321,4.568-1.703
			c1.704,0.618,2.941,2.075,4.096,3.471c0.034-1.548,1.217-2.896,2.63-3.528c1.413-0.633,3.017-0.671,4.562-0.575
			c0.731,0.046,1.493,0.13,2.108,0.528c0.792,0.511,1.201,1.459,1.352,2.389c0.728,4.472-3.327,8.138-6.963,10.841
			c-2.222,1.653-4.445,3.305-6.668,4.958"/>
		<path style="clip-path:url(#SVGID_00000021102367142690329100000003313452076556574651_);fill:#E84B4B;" d="M334.612,330.022
			c-0.923-3.517-0.646-8.212,2.725-9.576c3.901,2.012,6.977,5.572,8.402,9.724c-0.432-3.331,2.602-5.986,5.333-7.943
			c0.831-0.595,1.748-1.215,2.768-1.168c0.836,0.038,1.592,0.531,2.175,1.132c3.217,3.315,1.575,9.064-1.579,12.44
			c-2.407,2.577-8.519,8.851-12.439,7.849C338.085,341.48,335.48,333.331,334.612,330.022z"/>
		<path style="clip-path:url(#SVGID_00000021102367142690329100000003313452076556574651_);fill:#E84B4B;" d="M377.652,342.142
			c-3.866-2.181-7.07-5.52-9.09-9.473c-0.742-1.452-1.338-3.064-1.131-4.681c0.207-1.617,1.438-3.196,3.064-3.316
			c0.821-0.061,1.623,0.242,2.373,0.583c2.495,1.135,4.768,2.754,6.656,4.742c-0.64-2.554,0.778-5.468,3.184-6.539
			c2.406-1.071,5.52-0.176,6.99,2.009c1.408,2.093,1.261,4.896,0.458,7.287c-1.453,4.33-4.944,7.926-9.228,9.508
			c0.256-0.086,0.512-0.172,0.768-0.258"/>
		<path style="clip-path:url(#SVGID_00000021102367142690329100000003313452076556574651_);fill:#E84B4B;" d="M401.792,328.509
			c-0.155-2.409,0.673-5.599,3.086-5.675c1.734-0.055,2.973,1.669,3.577,3.296c0.604,1.626,0.995,3.475,2.346,4.564
			c1.955-3.645,6.178-5.94,10.299-5.597c2.109,3.676-0.55,8.242-3.494,11.29C408.532,345.781,402.569,340.535,401.792,328.509z"/>
		<path style="clip-path:url(#SVGID_00000021102367142690329100000003313452076556574651_);fill:#E84B4B;" d="M632.473,59.614
			c-0.993,3.44-2.837,7.479-5.949,8.712c-0.941-1.712-1.746-3.519-2.605-5.278c-0.864-1.769-1.74-3.576-1.997-5.528
			c-0.15-1.142-0.061-2.375,0.588-3.326c0.649-0.951,1.977-1.496,3.009-0.984c1.743,0.866,1.185,3.162,2.253,4.392
			c0.449-0.917,0.925-1.851,1.718-2.551c0.925-0.816,2.505-1.227,3.301-0.286c0.547,0.647,0.442,1.607,0.274,2.438
			C632.916,57.934,632.721,58.756,632.473,59.614z"/>
		<g style="opacity:0.58;clip-path:url(#SVGID_00000021102367142690329100000003313452076556574651_);">
			<defs>
				<path id="SVGID_00000160163695616448164080000011060934258733246357_" style="opacity:0.58;" d="M286.141,518.577
					c-21.448-58.181-53.298-112.503-93.533-159.682c-4.787-7.348-10.684-14.14-18.031-20.105c-3.222-3.182-6.869-6.134-10.758-7.498
					c-2.356-1.397-4.829-2.726-7.427-3.979c-14.903-7.188-31.894-10.921-48.868-13.623c-33.375-5.313-67.621-6.937-101.521-4.814
					c-24.377,1.526-50.133,5.593-67.896,19.367c-9.119,7.071-15.432,16.207-20.94,25.454
					c-31.396,52.711-40.465,113.421-31.239,171.593c0.74,4.668,1.663,9.481,4.747,13.451c3.084,3.97,8.911,6.89,14.501,5.819
					l312.647,12.322c0.194-5.861,0.386-11.726,0.56-17.593c7.551,6.148,15.418,11.909,23.517,17.271
					c7.023-6.735,17.525-7.772,26.893-10.406c9.367-2.635,19.492-9.182,19.423-18.913
					C288.195,524.256,287.174,521.378,286.141,518.577z"/>
			</defs>
			<clipPath id="SVGID_00000036967459903938946290000016257030389665023643_">
				<use xlink:href="#SVGID_00000160163695616448164080000011060934258733246357_"  style="overflow:visible;"/>
			</clipPath>
			<g style="opacity:0.63;clip-path:url(#SVGID_00000036967459903938946290000016257030389665023643_);">
				<path style="fill:none;stroke:#6B2962;stroke-miterlimit:10;" d="M28.73,296.411c-1.245,9.836-6.689,18.57-12.061,26.903
					c-23.634,36.663-48.572,72.737-67.002,112.273c-18.43,39.536-30.2,83.301-25.678,126.687"/>
				<path style="fill:none;stroke:#6B2962;stroke-miterlimit:10;" d="M44.125,295.825C24.847,341.177-1.588,383.129-22.53,427.736
					c-20.942,44.608-36.533,93.467-31.932,142.531"/>
				<path style="fill:none;stroke:#6B2962;stroke-miterlimit:10;" d="M95.853,300.257c-15.508,46.107-31.065,92.403-39.895,140.24
					s-10.754,97.611,0.965,144.823c-0.427-3.215-0.854-6.43-1.281-9.645"/>
				<path style="fill:none;stroke:#6B2962;stroke-miterlimit:10;" d="M109.285,294.685c-8.268,26.207-16.353,52.472-24.254,78.792
					c-7.78,25.917-15.403,51.98-19.562,78.718c-7.603,48.879-3.326,99.564,12.359,146.478"/>
				<path style="fill:none;stroke:#6B2962;stroke-miterlimit:10;" d="M121.587,316.988
					c68.937,75.345,120.178,166.778,148.46,264.907c-1.288-1.712-2.577-3.425-3.865-5.137"/>
				<path style="fill:none;stroke:#6B2962;stroke-miterlimit:10;" d="M129.176,295.931
					c71.576,82.499,123.701,181.765,150.979,287.524"/>
				<path style="fill:none;stroke:#6B2962;stroke-miterlimit:10;" d="M126.442,408.416C63.969,391.626,7.893,352.03-28.833,298.775
					c0.753,1.825,1.506,3.65,2.26,5.475"/>
				<path style="fill:none;stroke:#6B2962;stroke-miterlimit:10;" d="M144.208,445.802c-16.33,9.624-37.053,5.678-55.174,0.117
					C24.967,426.257-33.81,389.63-79.689,340.781"/>
				<path style="fill:none;stroke:#6B2962;stroke-miterlimit:10;" d="M168.911,485.673c-19.786,9.496-39.978,19.117-61.723,22.086
					c-28.573,3.902-57.627-4.074-83.757-16.274c-26.131-12.2-50.071-28.552-75.158-42.774
					c-25.274-14.328-53.496-28.223-66.383-54.261c-0.272,1.844-0.543,3.688-0.815,5.532"/>
				<path style="fill:none;stroke:#6B2962;stroke-miterlimit:10;" d="M142.428,446.321c33.231-13.075,61.438-38.496,77.887-70.192
					c-0.832,0.317-1.664,0.634-2.497,0.951"/>
				<path style="fill:none;stroke:#6B2962;stroke-miterlimit:10;" d="M143.134,451.161c6.275,0.255,11.997-3.309,17.217-6.801
					c27.113-18.133,53.893-38.855,69.459-67.52c-0.609,0.469-1.219,0.938-1.828,1.407"/>
				<path style="fill:none;stroke:#6B2962;stroke-miterlimit:10;" d="M175.587,496.715c28.076-20.748,52.012-47.075,70.002-76.994
					c-0.821,1.001-1.34,2.247-1.471,3.536"/>
				<path style="fill:none;stroke:#6B2962;stroke-miterlimit:10;" d="M251.53,425.664c-2.691,6.076-5.775,11.981-9.334,17.593
					c-7.791,12.288-17.754,23.025-27.656,33.686c-11.56,12.445-23.703,25.292-39.573,31.346"/>
				<path style="fill:none;stroke:#6B2962;stroke-miterlimit:10;" d="M126.95,412.511c-26.604,1.066-52.084-10.32-75.264-23.42
					c-8.017-4.531-15.919-9.309-23.252-14.88c-7.447-5.658-14.261-12.097-21.057-18.521c-13.673-12.925-27.367-25.871-39.821-39.974
					c-4.015-4.546-7.912-9.225-12.431-13.271"/>
				<path style="fill:none;stroke:#6B2962;stroke-miterlimit:10;" d="M144.954,450.715c-17.393,6.874-36.973,6.626-55.206,2.464
					c-18.233-4.162-35.382-12.036-52.214-20.189c-45.34-21.96-90.156-46.808-125.936-82.272c-0.541-0.536-1.322-1.116-1.986-0.743
					c-0.664,0.373,0.374,1.638,0.604,0.911"/>
				<path style="fill:none;stroke:#6B2962;stroke-miterlimit:10;" d="M172.025,490.097c-28.564,13.948-59.063,28.244-90.68,24.953
					c-13.008-1.354-25.516-5.665-37.692-10.438c-38.261-15.001-74.421-34.807-110.461-54.557
					c-11.081-6.072-22.216-12.18-32.181-19.949c-6.681-5.208-12.797-11.14-18.209-17.658"/>
				<path style="fill:none;stroke:#6B2962;stroke-miterlimit:10;" d="M151.381,311.336c-15.682,21.366-46.243,27.18-71.999,20.929
					c-25.756-6.251-47.904-22.214-69.32-37.829c-0.58,2.062,0.794,4.464,2.865,5.011"/>
				<path style="fill:none;stroke:#6B2962;stroke-miterlimit:10;" d="M162.246,317.372c-23.174,17.434-51.745,28.343-80.741,27.895
					s-58.162-12.933-76.435-35.451"/>
				<path style="fill:none;stroke:#6B2962;stroke-miterlimit:10;" d="M129.226,420.706c12.513-32.724,38.978-59.844,71.385-73.154
					l-11.084-7.604c-30.902,9.817-56.465,35.081-66.644,65.865"/>
			</g>
		</g>
		
			<path style="clip-path:url(#SVGID_00000021102367142690329100000003313452076556574651_);fill:none;stroke:#0571E6;stroke-miterlimit:10;" d="
			M764.74,12.264c-14.651,24.051-29.963,47.699-45.913,70.908"/>
		<g style="clip-path:url(#SVGID_00000021102367142690329100000003313452076556574651_);">
			<line style="fill:none;stroke:#0571E6;stroke-miterlimit:10;" x1="384.426" y1="438.555" x2="384.426" y2="469.746"/>
			<line style="fill:none;stroke:#0571E6;stroke-miterlimit:10;" x1="400.021" y1="454.151" x2="368.83" y2="454.151"/>
			<line style="fill:none;stroke:#0571E6;stroke-miterlimit:10;" x1="376.628" y1="440.645" x2="392.223" y2="467.657"/>
			<line style="fill:none;stroke:#0571E6;stroke-miterlimit:10;" x1="397.931" y1="446.353" x2="370.919" y2="461.948"/>
			<line style="fill:none;stroke:#0571E6;stroke-miterlimit:10;" x1="370.919" y1="446.353" x2="397.931" y2="461.948"/>
			<line style="fill:none;stroke:#0571E6;stroke-miterlimit:10;" x1="392.223" y1="440.645" x2="376.628" y2="467.657"/>
		</g>
		
			<polyline style="clip-path:url(#SVGID_00000021102367142690329100000003313452076556574651_);fill:none;stroke:#0571E6;stroke-miterlimit:10;" points="
			624.383,481.618 642.618,466.582 647.413,481.618 663.456,466.081 668.411,481.618 684.195,466.332 689.071,481.618 
			704.208,466.958 		"/>
		
			<line style="clip-path:url(#SVGID_00000021102367142690329100000003313452076556574651_);fill:none;stroke:#0571E6;stroke-miterlimit:10;" x1="70.469" y1="138.593" x2="33.117" y2="176.552"/>
		
			<path style="clip-path:url(#SVGID_00000021102367142690329100000003313452076556574651_);fill:none;stroke:#0571E6;stroke-miterlimit:10;" d="
			M18.358,159.446c0.557-1.329,1.378-2.858,2.976-3.078c1.488-0.205,2.775,0.847,4.102,1.487c2.342,1.13,5.407,0.967,7.548-0.401
			c2.141-1.368,3.25-3.87,2.73-6.164c-0.34-1.498-1.297-2.851-1.642-4.348c-0.562-2.437,0.716-5.104,3.084-6.441
			c4.655-2.627,9.021,0.95,13.461-0.302c6.316-1.781,1.861-8.595,3.551-12.887c1.001-2.541,3.947-4.696,6.96-4.129
			c1.227,0.23,2.299,0.866,3.435,1.339c2.264,0.942,4.955,1.231,7.269,0.431c2.314-0.801,4.121-2.811,4.082-4.999
			c-0.039-2.184-1.751-4.047-2.653-6.09c-0.902-2.043-0.45-5.009,1.977-5.476"/>
		
			<path style="clip-path:url(#SVGID_00000021102367142690329100000003313452076556574651_);fill:none;stroke:#0571E6;stroke-miterlimit:10;" d="
			M429.448,43.451c-0.356-0.318,0.475-0.586,0.899-0.363c2.35,1.24,4.852,2.424,7.515,2.434c11.427,0.041,2.716-12.059,5.934-16.789
			c1.328-1.952,4.023-2.389,6.403-2.408c2.38-0.018,4.94,0.161,6.947-1.102c2.821-1.776,3.355-5.72,2.564-8.938
			c-0.636-2.59-1.9-5.433-0.58-7.755c3.371-5.925,13.484,0.416,15.878-6.484c0.815-2.348,0.105-5.006-1.269-7.087
			c-1.375-2.081-3.346-3.695-5.29-5.271c0.071,0.408,0.142,0.815,0.213,1.223"/>
	</g>
</g>
</svg>
